<?xml version="1.0" standalone="no"?> 
<!DOCTYPE svg PUBLIC "-//W3C//DTD SVG 1.1//EN" "http://www.w3.org/Graphics/SVG/1.1/DTD/svg11.dtd" >
<svg xmlns="http://www.w3.org/2000/svg">
<defs>
  <font id="svt-icons" horiz-adv-x="100">
    <font-face font-family="svt-icons"
      units-per-em="512" ascent="448"
      descent="64" />
    <missing-glyph horiz-adv-x="0" />
    <glyph glyph-name="HD"
      unicode="&#xF101;"
      horiz-adv-x="512" d=" M401.152 256.07168C395.6736 257.96608000000003 385.94048000000004 258.56 371.93216 258.56H349.41440000000006L316.87168 125.44H335.92832000000004C353.40288000000004 125.44 366.06464 125.63968 373.90848000000005 127.80032C381.7574400000001 129.95072 388.9408 133.55007999999998 395.46880000000004 139.4432C404.84864000000005 147.96799999999996 412.95872 159.02207999999996 419.16416000000004 173.33759999999995C423.7568000000001 183.93599999999998 426.81344000000007 192.44543999999996 427.75040000000007 203.51487999999998C429.0304000000001 218.65983999999997 426.1427200000001 231.53663999999998 420.8281600000001 239.78495999999998C415.49824 248.05888 408.94464 253.32223999999997 401.152 256.07168z M0 381.44V-2.5600000000000023H512V381.44H0zM220.44672 74.24000000000001H167.62367999999998L186.46527999999998 166.39999999999998H107.14112L88.29439999999998 74.24000000000001H35.47648L83.96799999999999 304.64H136.63232L117.99040000000001 222.72H197.31456000000003L216.11008 304.64H268.7744L220.44672 74.24000000000001zM462.35648000000003 145.25439999999998C452.83328 125.94175999999999 440.85760000000005 110.59199999999998 426.42432 99.22559999999999C415.37023999999997 90.37311999999997 401.10080000000005 82.88255999999996 383.61088000000007 78.67903999999993C373.71904 76.35968000000003 358.50239999999997 74.24000000000001 337.9712 74.24000000000001H256.3072L304.79872000000006 304.64H367.19616C383.74912000000006 304.64 395.41248 304.82944 401.07520000000005 304.21504000000004C410.65472 303.25248 418.66240000000005 303.26272 426.1939200000001 300.3136C433.71520000000004 297.37984 440.56576000000007 293.61663999999996 446.73024000000004 288.29696C452.88448000000005 282.97727999999995 458.20416000000006 276.78207999999995 462.67904000000004 269.29664C467.15392 261.82656 470.60480000000007 253.312 473.02656 243.58912C475.44832 233.84576 476.65664000000004 223.21664 476.65664000000004 211.65056C476.65664 186.68032 471.88992 164.5824 462.35648000000003 145.25439999999998z" />
    <glyph glyph-name="airplay"
      unicode="&#xF102;"
      horiz-adv-x="512" d=" M0 372.00896L0 65.54624000000001L92.52352 65.54624000000001L92.52352 117.36063999999999L51.8144 117.36063999999999L51.8144 320.19456L460.18559999999997 320.19456L460.18559999999997 117.36063999999999L419.47648000000004 117.36063999999999L419.47648000000004 65.54624000000001L512 65.54624000000001L512 372.00896z M99.56864 11.991039999999998L412.43136 11.991039999999998L257.408 220.55936z" />
    <glyph glyph-name="angle-curved-left"
      unicode="&#xF103;"
      horiz-adv-x="512" d=" M113.59232 145.23904L298.87488 -41.46176000000008C324.5824 -67.37408000000016 366.8224000000001 -67.53280000000007 392.73983999999996 -41.820160000000044L395.51488 -39.06048000000004C421.43231999999995 -13.35808000000003 421.59615999999994 28.881919999999923 395.87327999999997 54.78911999999997L259.9424 191.77983999999998L398.0288 328.81664C423.94111999999996 354.5344 424.09984 396.7744 398.37696 422.68672L395.63776 425.46176C369.92 451.3792 327.68 451.53792 301.76768 425.82016L115.072 240.54783999999998C112.58368 238.08512 110.34112000000002 235.46367999999998 108.33408000000001 232.72448C88.20224 206.82752 89.91744000000001 169.10848 113.59232 145.23904z" />
    <glyph glyph-name="angle-curved-right"
      unicode="&#xF104;"
      horiz-adv-x="512" d=" M403.67104 232.72448C401.65888 235.46367999999998 399.41632 238.08512 396.93312 240.54783999999998L210.23232000000002 425.82016C184.32 451.53792 142.08 451.3792 116.36224 425.46176L113.61792 422.68672C87.90016 396.7744 88.05887999999999 354.5344 113.9712 328.81664L252.06271999999998 191.77983999999998L116.12672 54.78911999999997C90.40896000000001 28.881919999999923 90.57280000000002 -13.35808000000003 116.49024000000001 -39.06048000000004L119.26528000000002 -41.820160000000044C145.1776 -67.53280000000007 187.41760000000002 -67.36896000000002 213.13024000000001 -41.46176000000008L398.40767999999997 145.23903999999993C422.08256 169.10848 423.79776 206.82752 403.67104 232.72448z" />
    <glyph glyph-name="angle-left"
      unicode="&#xF105;"
      horiz-adv-x="512" d=" M125.81376 192L343.04 -25.216000000000008L386.47808 18.232320000000016L212.70016 192L386.47808 365.78304L343.04 409.22112z" />
    <glyph glyph-name="angle-right"
      unicode="&#xF106;"
      horiz-adv-x="512" d=" M386.18624000000005 192L168.96 409.22112L125.5168 365.77792L299.29472000000004 192L125.5168 18.222080000000005L168.96 -25.22112000000004z" />
    <glyph glyph-name="arrow-down"
      unicode="&#xF107;"
      horiz-adv-x="512" d=" M468.92032 204.43135999999998L425.06752 247.87968L281.6 104.82175999999998L281.6 396.8L220.16 396.8L220.16 104.82175999999998L77.50656000000001 247.87968L34.27328 204.43135999999998L251.5968 -12.794879999999978z" />
    <glyph glyph-name="arrow-left"
      unicode="&#xF108;"
      horiz-adv-x="512" d=" M263.30624 -25.22112000000004L306.74944 18.222080000000005L163.69152 161.27999999999997L455.68 161.27999999999997L455.68 222.72L163.69152 222.72L306.74944 365.77792L263.30624 409.22112L46.08 192z" />
    <glyph glyph-name="arrow-right"
      unicode="&#xF109;"
      horiz-adv-x="512" d=" M245.76 409.22112L202.3168 365.77792L345.37472 222.72L51.2 222.72L51.2 161.27999999999997L345.37472 161.27999999999997L202.3168 18.222080000000005L245.76 -25.22112000000004L462.98624000000007 192z" />
    <glyph glyph-name="arrow-up"
      unicode="&#xF10A;"
      horiz-adv-x="512" d=" M34.754560000000005 180.66944L77.64992000000001 137.22624000000002L220.16 280.28416000000004L220.16 -12.800000000000011L281.6 -12.800000000000011L281.6 280.28416000000004L425.21088000000003 137.22624000000002L468.92032 180.66944L251.83744 397.89567999999997z" />
    <glyph glyph-name="backward"
      unicode="&#xF10B;"
      horiz-adv-x="512" d=" M168.96 53.75999999999999L168.96 192L168.96 330.24L112.64 330.24L112.64 53.75999999999999z M394.24 328.51968L166.71232 192L394.24 55.480320000000006z" />
    <glyph glyph-name="ban"
      unicode="&#xF10C;"
      horiz-adv-x="512" d=" M509.44 192C509.44 333.3888 394.8288 448 253.44 448S-2.56 333.3888 -2.56 192C-2.56 50.6112 112.05120000000001 -64 253.44 -64S509.44 50.6112 509.44 192zM253.44 396.8C299.83744 396.8 342.61504 381.34784 376.96 355.34335999999996L90.09664000000001 68.48000000000002C64.08704 102.81983999999994 48.64 145.60255999999998 48.64 192C48.64 305.11104 140.32896000000002 396.8 253.44 396.8zM253.44 -12.800000000000011C205.18400000000003 -12.800000000000011 160.86528 3.9270399999999768 125.86496 31.84639999999996L413.59360000000004 319.57504C441.50784 284.5696 458.24 240.25088 458.24 192C458.24 78.88896 366.55104 -12.800000000000011 253.44 -12.800000000000011z" />
    <glyph glyph-name="camera"
      unicode="&#xF10D;"
      horiz-adv-x="512" d=" M316.6464 230.67136C291.15392 230.67136 270.41792000000004 209.93536 270.41792000000004 184.44288C270.41792000000004 158.9504 291.15904 138.2144 316.6464 138.2144S362.87487999999996 158.9504 362.87487999999996 184.44288C362.87487999999996 209.93536 342.13376 230.67136 316.6464 230.67136z M189.44 309.76V325.12H102.4V309.76H51.2V58.879999999999995H460.8V309.76H189.44zM189.44 232.96H102.4V268.79999999999995H189.44V232.96zM316.6464 98.44735999999995C269.22496 98.44735999999995 230.65088 137.02655999999996 230.65088 184.44287999999995C230.65088 231.8592 269.22496 268.45183999999995 316.6464 268.45183999999995C364.06271999999996 268.45183999999995 402.64191999999997 231.86431999999996 402.64191999999997 184.44287999999995C402.64192 137.02655999999996 364.05760000000004 98.44735999999995 316.6464 98.44735999999995z" />
    <glyph glyph-name="caret-down"
      unicode="&#xF10E;"
      horiz-adv-x="512" d=" M256.00512 94.71488L66.56512 284.15999999999997L445.45536 284.15999999999997z" />
    <glyph glyph-name="caret-left"
      unicode="&#xF10F;"
      horiz-adv-x="512" d=" M163.83488 191.99488000000002L353.28000000000003 381.44L353.28000000000003 2.549759999999992z" />
    <glyph glyph-name="caret-right"
      unicode="&#xF110;"
      horiz-adv-x="512" d=" M348.16512000000006 192L158.72 2.5548799999999687L158.72 381.44512z" />
    <glyph glyph-name="caret-toggle"
      unicode="&#xF111;"
      horiz-adv-x="512" d=" M256.01024 422.40512L445.45024 232.96L66.56 232.96z M256.00512 -38.40512000000001L66.56512 151.04000000000002L445.45536 151.04000000000002z" />
    <glyph glyph-name="caret-up"
      unicode="&#xF112;"
      horiz-adv-x="512" d=" M256.01024 284.16512L445.45024 94.71999999999997L66.56 94.71999999999997z" />
    <glyph glyph-name="clock"
      unicode="&#xF113;"
      horiz-adv-x="512" d=" M286.72 371.2L235.52 371.2L235.52 217.6L235.52 166.39999999999998L389.12 166.39999999999998L389.12 217.6L286.72 217.6z M256 448C114.61120000000001 448 0 333.3888 0 192S114.61120000000001 -64 256 -64S512 50.6112 512 192S397.3888 448 256 448zM256 -12.800000000000011C142.88896 -12.800000000000011 51.2 78.88896 51.2 192S142.88896 396.8 256 396.8S460.8 305.11104 460.8 192S369.11104 -12.800000000000011 256 -12.800000000000011z" />
    <glyph glyph-name="close"
      unicode="&#xF114;"
      horiz-adv-x="512" d=" M400.81408000000005 336.81408C320.83456 416.79359999999997 191.16544000000002 416.79359999999997 111.18592000000004 336.81408S31.20640000000004 127.16543999999999 111.18592000000004 47.18592000000001S320.83456000000007 -32.79359999999997 400.81408000000005 47.18592000000001S480.7936 256.83456 400.81408000000005 336.81408zM256 151.55712L182.08768 77.64991999999995L141.64992 118.08767999999998L215.55712 192L141.64992 265.91232L182.08768 306.35008L256 232.44288L329.91232 306.35008000000005L370.35008000000005 265.91232L296.44288 192L370.35008000000005 118.08767999999998L329.91232 77.64991999999995L256 151.55712z" />
    <glyph glyph-name="cog"
      unicode="&#xF115;"
      horiz-adv-x="512" d=" M460.8 164.41856V219.58144L430.99648 230.17984C419.63008 234.21952000000002 410.48576 242.89792 405.86752 254.03904000000003C405.86752 254.04928000000004 405.86752 254.04928000000004 405.8624 254.05440000000002C401.23392 265.22624 401.55648 277.83680000000004 406.74816 288.75264000000004L420.32128 317.30688L381.31712 356.31616L352.76288 342.74304C341.84704 337.55648 329.22112000000004 337.2288 318.05952 341.85728000000006C318.05440000000004 341.85728000000006 318.04928 341.86240000000004 318.04416000000003 341.86240000000004C306.8928 346.48576 298.22976000000006 355.61984000000007 294.18496 366.98624000000007L283.58144 396.8H228.41856L217.82016 366.99136C213.77536 355.63008 205.10208 346.49088 193.95584 341.87264C193.95072000000002 341.86752 193.95072000000002 341.8624 193.94559999999998 341.8624C182.77375999999998 337.23392 170.1632 337.55648 159.24223999999998 342.74816L130.688 356.32128L91.68383999999999 317.312L105.25695999999998 288.76288C110.44863999999998 277.84704 110.76607999999999 265.22112000000004 106.14271999999997 254.05440000000002C106.13759999999996 254.05440000000002 106.13759999999996 254.04928000000004 106.13247999999999 254.04416C101.51423999999997 242.89280000000002 92.38015999999998 234.22976000000003 81.01375999999999 230.18496L51.2 219.58144V164.42368L81.00352 153.82528000000002C92.36992000000001 149.7856 101.51423999999999 141.10719999999998 106.12736000000001 129.96607999999998C106.13248000000002 129.96096 106.13248000000002 129.95583999999997 106.13248000000002 129.95583999999997C110.76608000000002 118.77887999999996 110.44352 106.16832 105.25184000000002 95.24735999999996L91.67872000000001 66.69824L130.68288 27.68896000000001L159.23712 41.26207999999997C170.15295999999998 46.44864000000001 182.78400000000002 46.77631999999994 193.94047999999998 42.147839999999974C193.94559999999998 42.147839999999974 193.95072000000002 42.14271999999994 193.95584 42.13760000000002C205.10208 37.519360000000006 213.77023999999997 28.385280000000023 217.80991999999998 17.018879999999967L228.41856 -12.800000000000011H283.57632L294.11328 16.819199999999967C298.18879999999996 28.287999999999954 306.94399999999996 37.519360000000006 318.1824 42.18879999999996C318.18751999999995 42.19391999999999 318.19264 42.19903999999997 318.19775999999996 42.19903999999997C329.26207999999997 46.796799999999905 341.75487999999996 46.48447999999996 352.57856 41.338879999999904L381.30688000000004 27.678719999999885L420.31616 66.68799999999987L406.7328 95.25759999999985C401.55136 106.15807999999987 401.2288 118.77887999999984 405.85216 129.92511999999988C405.85728000000006 129.9353599999999 405.85728000000006 129.9353599999999 405.85728000000006 129.94047999999987C410.48576 141.1020799999999 419.62496 149.77535999999986 431.0067200000001 153.82527999999985L460.8 164.41856zM256 116.89472C214.51775999999998 116.89472 180.8896 150.51776 180.8896 192S214.51776 267.1104 256 267.1104S331.10528 233.48224 331.10528 192S297.48224 116.89472 256 116.89472z" />
    <glyph glyph-name="comment"
      unicode="&#xF116;"
      horiz-adv-x="512" d=" M435.2 99.83999999999997L256 99.83999999999997L122.88 12.800000000000011L122.88 99.83999999999997L76.8 99.83999999999997L76.8 371.2L435.2 371.2z" />
    <glyph glyph-name="comments"
      unicode="&#xF117;"
      horiz-adv-x="512" d=" M139.86304 250.75712L23.726080000000003 250.75712L23.726080000000003 18.478079999999977L70.18496 18.478079999999977L70.18496 -51.19999999999999L197.93408 18.478079999999977L314.07104 18.478079999999977L314.07104 134.62016L139.86304 134.62016z M197.93408 424.96L197.93408 308.82304L197.93408 192.68608L314.07104 192.68608L441.82016000000004 123.00288L441.82016000000004 192.68608L488.27392000000003 192.68608L488.27392000000003 424.96z" />
    <glyph glyph-name="days-14"
      unicode="&#xF118;"
      horiz-adv-x="512" d=" M256 448C114.61632 448 0 333.3888 0 192S114.61632 -64 256 -64C397.3888 -64 512 50.6112 512 192S397.39904 448 256 448zM256 -12.800000000000011C142.88896 -12.800000000000011 51.2 78.88896 51.2 192S142.88896 396.8 256 396.8C369.11616000000004 396.8 460.8 305.11104 460.8 192S369.11616000000004 -12.800000000000011 256 -12.800000000000011z M195.96288 129.27999999999997V210.6368H164.42368000000002V229.81119999999999C168.84224000000003 229.69343999999998 173.11744000000002 230.02111999999997 177.23392000000004 230.79423999999997C181.36064000000002 231.56736 185.05728000000002 232.94464 188.34432000000004 234.92095999999998C191.63136000000006 236.89215999999996 194.41152000000005 239.49311999999998 196.67456000000007 242.71359999999996C198.94272000000004 245.93919999999997 200.43776000000005 249.93791999999996 201.15456000000006 254.71999999999997H221.40416000000005V129.27999999999997H195.96288z M253.6704 158.31040000000002V181.61152000000004L308.15744 254.72512000000003H330.90047999999996V179.28192H347.57632V158.31040000000002H330.90047999999996V129.27999999999997H306.70336V158.31040000000002H253.6704zM306.18112 222.82240000000002L273.74080000000004 179.28192H306.70336000000003V222.82240000000002H306.18112z" />
    <glyph glyph-name="days-30"
      unicode="&#xF119;"
      horiz-adv-x="512" d=" M256 448C114.61120000000001 448 0 333.3888 0 192S114.61120000000001 -64 256 -64S512 50.6112 512 192S397.3888 448 256 448zM256 -12.800000000000011C142.88896 -12.800000000000011 51.2 78.88896 51.2 192S142.88896 396.8 256 396.8S460.8 305.11104 460.8 192S369.11104 -12.800000000000011 256 -12.800000000000011z M206.27455999999998 203.91936C209.37727999999998 204.16 212.28032 204.84608 214.96831999999998 205.97760000000002C217.65632 207.10912 219.86816 208.75776000000002 221.59872 210.90816S224.19456 215.92576 224.19456 219.50976000000003C224.19456 224.89088000000004 222.40256 229.00736 218.81856 231.87456C215.23456 234.74688 211.11296 236.17536000000004 206.45376000000002 236.17536000000004C200.00256000000002 236.17536000000004 195.13344 234.05568000000002 191.8464 229.81632000000005C188.55935999999997 225.57696000000004 186.97728 220.23168000000004 187.10016 213.77536000000003H162.90815999999998C163.14368 220.23168000000004 164.31104 226.10944000000003 166.40511999999998 231.42912000000004C168.49408 236.74368 171.42271999999997 241.31584 175.18592 245.13536000000002C178.94912 248.96000000000004 183.45472 251.91424000000004 188.71808000000001 254.00832000000003C193.97120000000004 256.09216000000004 199.82848 257.14176000000003 206.27968 257.14176000000003C211.29728 257.14176000000003 216.31488000000002 256.39424 221.33248 254.8992S230.86079999999998 251.16672000000003 234.86464 248.18176000000003C238.86847999999998 245.19168000000002 242.11968000000002 241.55136000000002 244.6336 237.25056000000004C247.1424 232.94464000000002 248.3968 227.98848000000004 248.3968 222.37696000000003C248.3968 216.28416000000004 246.93248 210.90816 244.00896 206.24896000000004C241.08032 201.58976000000004 236.68736 198.42560000000003 230.84032 196.75648000000004V196.39808000000005C237.76768 194.84160000000003 243.20512 191.49312000000003 247.14752000000001 186.37312000000003C251.08992000000003 181.23264000000006 253.06112000000002 175.08352000000008 253.06112000000002 167.91552000000007C253.06112000000002 161.34656000000007 251.77600000000004 155.4841600000001 249.21088 150.35392000000007C246.64064 145.21344000000005 243.20512 140.91264000000007 238.90432 137.44640000000004C234.60352 133.9750400000001 229.64224000000002 131.35872000000006 224.03072 129.55648000000008C218.41408 127.76448000000005 212.56192 126.87872000000004 206.46912 126.87872000000004C199.41888 126.87872000000004 192.9984 127.89760000000007 187.20256 129.93024000000003C181.40672000000004 131.95776000000006 176.48128 134.93248 172.42112 138.79808000000003C168.36096 142.67904000000004 165.22240000000002 147.43040000000002 163.01568 153.04704000000004C160.80384 158.65856000000008 159.75936000000002 165.09952000000004 159.87712000000002 172.38528000000002H184.06912C184.18688000000003 169.04704000000004 184.72448 165.85728000000006 185.68192 162.79552000000007C186.63935999999998 159.75424000000004 188.01152 157.13792000000007 189.80352 154.91584000000006C191.59552 152.70400000000006 193.83808 150.94784000000004 196.52095999999997 149.63712000000004C199.20383999999999 148.31616000000002 202.40383999999997 147.65568000000007 206.11071999999996 147.65568000000007C211.84511999999995 147.65568000000007 216.68351999999996 149.42720000000003 220.62591999999998 152.94464000000005S226.53951999999998 161.27488000000005 226.53951999999998 167.3625600000001C226.53951999999998 172.14464000000004 225.6128 175.78496000000007 223.76447999999996 178.29376000000008C221.91103999999996 180.80256000000008 219.55583999999996 182.62528000000003 216.68864 183.76192000000003C213.82143999999997 184.89344000000006 210.688 185.55392000000006 207.28319999999997 185.73312000000004S200.62207999999995 186.00448000000006 197.51423999999997 186.00448000000006V203.92448000000005C200.23808000000002 203.67872 203.16672 203.67872 206.27455999999998 203.91936z M263.71072 223.18592C266.1632 231.48544 269.47072000000003 238.15168 273.64352 243.16416C277.82656 248.18176 282.7008 251.77088 288.256 253.92128C293.80608 256.07168 299.68895999999995 257.14688 305.89952 257.14688C312.22272 257.14688 318.17215999999996 256.07168 323.72224 253.92128C329.28256000000005 251.77088 334.17216 248.18688 338.42176 243.16416C342.65088 238.15168 345.99424 231.48544 348.45184 223.18592C350.90432000000004 214.88128 352.12288 204.64128 352.12288 192.45568C352.12288 179.92192 350.90944 169.42079999999999 348.45184 161.00351999999998C345.99424 152.58111999999994 342.65088000000003 145.86368 338.42176 140.84096C334.17216 135.82335999999998 329.28256000000005 132.22911999999997 323.72224 130.07871999999998C318.17215999999996 127.92831999999999 312.22272 126.84800000000001 305.89952 126.84800000000001C299.68895999999995 126.84800000000001 293.80607999999995 127.92831999999999 288.256 130.07871999999998C282.69568 132.22912000000002 277.8368 135.808 273.64352 140.84096C269.47072000000003 145.85343999999998 266.15296 152.58111999999994 263.71072 161.00351999999998C261.25824 169.42592000000002 260.02944 179.91168 260.02944 192.45568C260.03968000000003 204.64128 261.25824 214.88128 263.71072 223.18592zM285.83936 179.46112C286.08 174.38208000000003 286.82752 169.48224 288.08192 164.7616C289.34144000000003 160.04095999999998 291.33824000000004 156.01151999999996 294.08768000000003 152.67328000000003C296.83200000000005 149.32479999999998 300.78464 147.65568000000002 305.92512000000005 147.65568000000002C311.1782400000001 147.65568000000002 315.20768000000004 149.32480000000004 318.01856000000004 152.67328000000003C320.82432000000006 156.01152000000002 322.85184000000004 160.04095999999998 324.10112000000004 164.7616S326.10816000000005 174.38207999999997 326.34368000000006 179.46112C326.58432000000005 184.52992 326.6969600000001 188.87168000000003 326.6969600000001 192.45568C326.6969600000001 194.59583999999998 326.6662400000001 197.20191999999997 326.59456000000006 200.2432C326.53312000000005 203.28959999999998 326.29248000000007 206.42304 325.87264000000005 209.64864S324.86400000000003 216.06912 324.0806400000001 219.23839999999998C323.30240000000003 222.39744 322.1401600000001 225.23904 320.5836800000001 227.74784C319.0169600000001 230.25664 317.0611200000001 232.28928 314.67008000000004 233.84063999999998C312.27392000000003 235.39199999999997 309.35040000000004 236.16511999999997 305.88416000000007 236.16511999999997C302.40768 236.16511999999997 299.53024000000005 235.39199999999997 297.2006400000001 233.84063999999998C294.87104000000005 232.28415999999996 292.96128000000004 230.25663999999998 291.47136000000006 227.74784C289.97120000000007 225.23904 288.80384000000004 222.39744 287.96416000000005 219.23839999999998C287.12448000000006 216.06912 286.54080000000005 212.87424 286.16704000000004 209.64864S285.60384000000005 203.28960000000004 285.53728000000007 200.2432C285.47584000000006 197.19168000000002 285.4348800000001 194.59583999999998 285.4348800000001 192.45568C285.48096000000004 188.87168000000003 285.59872 184.52992 285.83936 179.46112z" />
    <glyph glyph-name="days-30plus"
      unicode="&#xF11A;"
      horiz-adv-x="512" d=" M256 448C114.61120000000001 448 0 333.3888 0 192S114.61120000000001 -64 256 -64S512 50.6112 512 192S397.3888 448 256 448zM256 -12.800000000000011C142.88896 -12.800000000000011 51.2 78.88896 51.2 192S142.88896 396.8 256 396.8S460.8 305.11104 460.8 192S369.11104 -12.800000000000011 256 -12.800000000000011z M154.84928 203.91936C157.952 204.15488000000002 160.84992 204.84096 163.53791999999999 205.97760000000002C166.22592 207.10912 168.43264 208.75264 170.16832 210.90304000000003C171.89888 213.05344000000005 172.76928 215.92064000000002 172.76928 219.50464000000002C172.76928 224.88064000000003 170.97216 229.00224000000003 167.38816 231.86944000000003C163.80927999999997 234.73664000000005 159.68256 236.17024000000004 155.02847999999997 236.17024000000004C148.57216 236.17024000000004 143.70304 234.04544000000004 140.42111999999997 229.80608000000004C137.12895999999998 225.56672000000003 135.55199999999996 220.21632000000005 135.66975999999997 213.77024000000006H111.47263999999997C111.71327999999998 220.22144000000003 112.87551999999998 226.10432000000003 114.96959999999997 231.41888000000006C117.06367999999998 236.73344000000003 119.98719999999997 241.30560000000006 123.75039999999997 245.13024000000004S132.02431999999996 251.90912000000003 137.28256 253.99808000000004C142.53567999999999 256.08704000000006 148.39296 257.13664000000006 154.84928 257.13664000000006C159.86175999999998 257.13664000000006 164.88447999999997 256.38912000000005 169.89695999999998 254.89408000000003C174.91455999999994 253.39904 179.42015999999995 251.15648000000004 183.42911999999998 248.17664000000005C187.42783999999997 245.18656000000001 190.68927999999997 241.54624000000004 193.19295999999994 237.24544000000006C195.70175999999995 232.94464000000002 196.95615999999995 227.98336000000006 196.95615999999995 222.37184000000005C196.95615999999995 216.27904000000007 195.49183999999994 210.90304000000003 192.56831999999994 206.24384000000006C189.63967999999994 201.58464000000006 185.24671999999995 198.42048000000005 179.39967999999993 196.74624000000006V196.38784000000007C186.32703999999995 194.83136000000005 191.76447999999993 191.48800000000006 195.70687999999996 186.35264000000006C199.65439999999995 181.21728000000007 201.62047999999996 175.06304000000006 201.62047999999996 167.90016000000008C201.62047999999996 161.32096000000007 200.33535999999998 155.46368000000007 197.76511999999997 150.32832000000008S191.76447999999996 140.89216000000005 187.46367999999995 137.42080000000004C183.15775999999994 133.95968000000005 178.20159999999996 131.33824000000004 172.59007999999994 129.54112000000003C166.96831999999995 127.74912 161.12127999999993 126.85824000000002 155.02847999999994 126.85824000000002C147.97311999999994 126.85824000000002 141.55263999999994 127.87712000000005 135.76191999999995 129.91488000000004C129.96607999999995 131.94240000000002 125.03551999999996 134.89664000000005 120.97535999999997 138.77760000000006C116.91007999999997 142.65856000000008 113.77663999999997 147.41504000000003 111.56479999999996 153.01120000000003C109.35295999999997 158.63808000000006 108.30847999999996 165.07904000000008 108.43135999999997 172.36992000000004H132.62847999999997C132.74111999999997 169.02656000000007 133.28383999999997 165.83680000000004 134.23615999999996 162.78016000000008C135.18847999999997 159.7286400000001 136.56575999999995 157.11232000000007 138.35775999999996 154.90048000000007C140.15487999999996 152.67840000000007 142.39231999999996 150.92736000000002 145.07519999999997 149.61664000000002C147.76319999999996 148.29056000000003 150.95807999999997 147.64032000000003 154.66495999999998 147.64032000000003C160.39935999999997 147.64032000000003 165.23263999999995 149.40672 169.18015999999997 152.92416000000003C173.12256 156.44672000000003 175.09375999999997 161.25952000000007 175.09375999999997 167.34720000000004C175.09375999999997 172.12928000000005 174.16191999999995 175.76960000000008 172.31359999999998 178.27840000000003C170.46015999999997 180.78720000000004 168.10495999999995 182.60992 165.23263999999995 183.74656000000004C162.36543999999998 184.87808 159.23199999999994 185.53856000000002 155.82719999999995 185.71776C152.42239999999995 185.89695999999998 149.16607999999997 185.98912 146.06335999999996 185.98912V203.90912C148.81792 203.67872 151.74144 203.67872 154.84928 203.91936z M212.28032 223.1808C214.7328 231.48544 218.04543999999999 238.14144 222.22335999999999 243.15904C226.4064 248.17664 231.27552 251.76064000000002 236.83072 253.91104S248.26880000000003 257.13664000000006 254.47936 257.13664000000006C260.80768 257.13664000000006 266.752 256.06144000000006 272.3072 253.91104C277.86752 251.76064000000002 282.75712 248.17664000000005 287.0016 243.15904C291.23584 238.14144000000005 294.58432 231.48032000000003 297.0368 223.1808C299.48928 214.87616000000003 300.70784 204.63104 300.70784 192.45056C300.70784 179.90143999999998 299.48928 169.42079999999999 297.0368 161.00351999999998C294.58432 152.57599999999996 291.23584 145.85856 287.0016 140.84096C282.75712 135.82335999999998 277.86752 132.23424 272.3072 130.07871999999998C266.752 127.92831999999999 260.80768 126.85311999999999 254.47936 126.85311999999999C248.26880000000003 126.85311999999999 242.38592 127.92831999999999 236.83072 130.07871999999998C231.27552 132.23424 226.41152000000002 135.81311999999997 222.22335999999999 140.84096C218.04543999999999 145.85343999999998 214.72768 152.57087999999993 212.28032 161.00351999999998C209.82784 169.42592000000002 208.60928 179.90143999999998 208.60928 192.45056C208.60928 204.63616000000002 209.83295999999999 214.87616000000003 212.28032 223.1808zM234.41408 179.45599999999996C234.6496 174.38719999999995 235.39712 169.48735999999997 236.65664 164.76671999999996C237.90592 160.04608000000002 239.90784 156.01663999999994 242.65728 152.67327999999998C245.40671999999998 149.32991999999996 249.34912 147.6608 254.4896 147.6608C259.7376 147.6608 263.76704 149.32991999999996 266.57792 152.67327999999998S271.41632 160.04607999999996 272.6656 164.76671999999996C273.91999999999996 169.48735999999997 274.66751999999997 174.38719999999995 274.90816 179.45599999999996C275.1488 184.53503999999998 275.26655999999997 188.86656 275.26655999999997 192.45568C275.26655999999997 194.60608 275.23584 197.20703999999998 275.1744 200.24831999999998C275.11296 203.29471999999998 274.87232 206.43327999999997 274.45248 209.65376C274.03264 212.87936000000002 273.44383999999997 216.07423999999997 272.65536000000003 219.24352C271.88223999999997 222.40768 270.71488 225.24415999999997 269.15840000000003 227.75807999999998C267.60704000000004 230.26688 265.63584 232.29951999999997 263.24992 233.85087999999996C260.85888 235.40223999999995 257.93023999999997 236.18047999999996 254.46911999999998 236.18047999999996C250.99776 236.18047999999996 248.10495999999995 235.40223999999995 245.77535999999998 233.85087999999996C243.45087999999996 232.29951999999997 241.53599999999994 230.26687999999993 240.04607999999996 227.75807999999998C238.55103999999997 225.24927999999997 237.38367999999994 222.41279999999998 236.54911999999996 219.24352C235.70943999999997 216.07423999999997 235.11551999999998 212.88448 234.75199999999998 209.65376C234.39871999999997 206.42816 234.1888 203.29472 234.12735999999998 200.24831999999998C234.06591999999998 197.20191999999997 234.03519999999997 194.60095999999996 234.03519999999997 192.45568C234.05568 188.86656 234.17344000000003 184.53503999999998 234.41408 179.45599999999996z M403.57888 204.50815999999998V185.33375999999998H367.91808V149.67296H348.73856V185.33376000000004H313.07776V204.50816000000003H348.73856V240.16896H367.91808V204.50815999999998H403.57888z" />
    <glyph glyph-name="days-365"
      unicode="&#xF11B;"
      horiz-adv-x="512" d=" M256 448C114.61120000000001 448 0 333.3888 0 192S114.61120000000001 -64 256 -64S512 50.6112 512 192S397.3888 448 256 448zM256 -12.800000000000011C142.88896 -12.800000000000011 51.2 78.88896 51.2 192S142.88896 396.8 256 396.8S460.8 305.11104 460.8 192S369.11104 -12.800000000000011 256 -12.800000000000011z M156.19072 203.92448C159.29344 204.16 162.19136 204.84608 164.87936000000002 205.98272C167.56736 207.11424 169.77408000000003 208.75776000000002 171.50976000000003 210.90816C173.24032000000003 213.05856000000003 174.11072000000004 215.92576 174.11072000000004 219.50976000000003C174.11072000000004 224.88576 172.31360000000004 229.00736 168.72960000000003 231.87456C165.15072000000004 234.74176000000003 161.02400000000003 236.17536000000004 156.36992000000004 236.17536000000004C149.91360000000003 236.17536000000004 145.04448000000002 234.05056000000005 141.76256 229.8112C138.4704 225.57184 136.89344000000003 220.22144000000003 137.0112 213.77536000000003H112.81408000000002C113.05472000000002 220.22656000000003 114.21696000000001 226.10944000000003 116.31104000000002 231.42400000000004C118.40512000000001 236.73856000000004 121.32864000000002 241.31072000000003 125.09184000000002 245.13536000000002S133.36576000000002 251.91424000000004 138.62400000000002 254.00320000000002C143.87712000000002 256.09216000000004 149.73440000000002 257.14176000000003 156.19072000000003 257.14176000000003C161.2032 257.14176000000003 166.22592 256.39424 171.23840000000004 254.8992C176.25600000000003 253.40416000000002 180.76160000000004 251.16160000000002 184.77056000000005 248.18176000000003C188.76928000000004 245.19168000000002 192.03072000000003 241.55136000000002 194.53440000000003 237.25056000000004C197.04320000000004 232.94976000000003 198.29760000000002 227.98848000000004 198.29760000000002 222.37696000000003C198.29760000000002 216.28416000000004 196.83328000000003 210.90816 193.90976000000003 206.24896000000004C190.98112 201.58976000000004 186.58816000000002 198.43072000000004 180.74112000000002 196.75648000000004V196.39808000000005C187.66848000000002 194.83648000000005 193.10592 191.49824 197.04832000000002 186.36288000000002C200.99584000000004 181.22752000000003 202.96192000000002 175.07328000000007 202.96192000000002 167.91040000000004C202.96192000000002 161.34144000000003 201.67680000000004 155.47904000000005 199.10656000000003 150.34368000000006S193.10592000000005 140.9075200000001 188.80512000000002 137.43616000000003C184.49920000000003 133.97504000000004 179.54304000000005 131.34848000000005 173.93152000000003 129.55648000000002C168.30976000000004 127.76448000000005 162.46272000000002 126.86848000000003 156.36992000000004 126.86848000000003C149.31456000000003 126.86848000000003 142.89408 127.88736000000006 137.10336000000004 129.92000000000002C131.30752 131.94752000000005 126.37696000000004 134.90688 122.31680000000004 138.78784000000002C118.25152000000004 142.66880000000003 115.11808000000005 147.42016 112.90624000000004 153.02656000000002C110.69440000000004 158.64832 109.64992000000004 165.08928000000003 109.77280000000005 172.38528000000002H133.96992000000003C134.08256000000003 169.03679999999997 134.62528000000003 165.84704 135.57760000000005 162.79552C136.52992000000003 159.73888 137.90720000000005 157.12256000000002 139.69920000000005 154.90560000000005C141.49632000000003 152.68864000000002 143.73376000000005 150.93760000000003 146.41664000000006 149.62688000000003C149.10464000000005 148.30592000000001 152.29952000000006 147.65568000000007 156.00640000000004 147.65568000000007C161.74080000000006 147.65568000000007 166.57408000000004 149.41696000000007 170.52160000000003 152.93440000000004C174.46400000000006 156.45696000000004 176.43520000000004 161.27488000000005 176.43520000000004 167.35744000000005C176.43520000000004 172.14464000000004 175.50336000000004 175.78496000000007 173.65504000000004 178.28864000000004C171.80160000000004 180.79744000000005 169.44640000000004 182.62528000000003 166.57408000000004 183.75680000000006C163.70688000000004 184.88832000000002 160.57344000000003 185.54880000000003 157.16864000000004 185.728C153.76384000000004 185.9072 150.50752000000006 185.99936000000002 147.40480000000002 185.99936000000002V203.91936C150.15936 203.68383999999998 153.08288000000002 203.68383999999998 156.19072 203.92448z M269.9776 233.31328000000002C266.99264 236.41600000000003 263.28576 237.97248 258.86719999999997 237.97248C254.32575999999997 237.97248 250.53695999999997 236.62592 247.48543999999998 233.93792000000002C244.43903999999998 231.24992 242.02239999999998 227.96288 240.23039999999997 224.08192000000003C238.43327999999997 220.19584000000003 237.12256 216.04352000000003 236.28287999999998 211.62496000000002C235.44832 207.20128000000003 234.96704 203.25888000000003 234.84927999999996 199.79776L235.20767999999998 199.44448C238.67391999999995 204.45695999999998 242.73407999999995 208.04096 247.39327999999998 210.19135999999997C252.05247999999997 212.34176 257.42848 213.41696 263.52128 213.41696C268.89727999999997 213.41696 274.14528 212.2496 279.28576 209.92S288.77824 204.45695999999998 292.37247999999994 200.50943999999998C295.71583999999996 196.68991999999997 298.16831999999994 192.32768 299.71968 187.42784C301.28128 182.52799999999996 302.04927999999995 177.57184 302.04927999999995 172.55936000000003C302.04927999999995 166.10304000000002 301.00991999999997 160.09728 298.92096 154.54720000000003C296.832 148.98687999999999 293.84192 144.14848 289.96096 140.02688C286.06976 135.90528 281.45152 132.67455999999999 276.0704 130.34496000000001S264.71936 126.84800000000001 258.15551999999997 126.84800000000001C248.71423999999996 126.84800000000001 240.89087999999995 128.72704 234.68031999999997 132.49536C228.46463999999997 136.25856000000005 223.50335999999996 141.18912000000006 219.80671999999996 147.28704000000005C216.09983999999997 153.37472000000002 213.52959999999996 160.27648000000005 212.10111999999995 167.98720000000003C210.66751999999994 175.68768000000006 209.95071999999993 183.54688000000004 209.95071999999993 191.54944C209.95071999999993 199.32160000000002 210.84671999999992 207.07840000000004 212.63359999999994 214.84544000000002C214.43071999999992 222.61248000000003 217.29279999999991 229.632 221.2403199999999 235.89888000000002C225.18271999999993 242.17088000000004 230.25663999999995 247.28064 236.47231999999994 251.22304000000003C242.68287999999993 255.16544000000005 250.27071999999993 257.13664000000006 259.2307199999999 257.13664000000006C264.60671999999994 257.13664000000006 269.6191999999999 256.3584000000001 274.27327999999994 254.80704000000006C278.93247999999994 253.25056000000004 283.0592 251.01312000000004 286.63807999999995 248.08960000000005C290.22207999999995 245.16096000000005 293.14559999999994 241.54624000000007 295.41887999999994 237.24544000000006C297.69216 232.94464000000002 299.18208 227.98336000000006 299.89887999999996 222.37184000000005H275.712C274.87744 226.56511999999998 272.96256 230.20544 269.9776 233.31328000000002zM248.56576 192.36864C245.99552 191.10912000000002 243.87584000000004 189.40927999999997 242.20672000000002 187.25888000000003C240.53248000000005 185.10848 239.27808000000002 182.6304 238.44352000000003 179.82976000000002C237.60896000000005 177.01376000000005 237.18912000000003 174.05952000000002 237.18912000000003 170.95680000000004C237.18912000000003 168.08960000000002 237.63968000000006 165.25824000000006 238.53568000000004 162.44736000000006C239.43168000000003 159.63136000000003 240.74752000000004 157.13280000000003 242.48320000000004 154.92096000000004C244.21376000000004 152.69888000000003 246.33344000000005 150.94784000000004 248.84224000000003 149.63712000000004C251.35104000000004 148.31104000000005 254.21824 147.66080000000005 257.44384 147.66080000000005C260.54144 147.66080000000005 263.2704 148.31104000000005 265.6 149.63712000000004C267.9296 150.94784000000004 269.93152 152.68352000000004 271.60064 154.8339200000001S274.52928 159.42144000000008 275.35872 162.18624000000005C276.19327999999996 164.93568000000005 276.61312 167.74656000000004 276.61312 170.61376000000007C276.61312 173.59872000000007 276.22911999999997 176.49664000000007 275.44576 179.30752000000007C274.66751999999997 182.10816000000005 273.50527999999997 184.61696000000006 271.94368 186.82880000000006C270.3872 189.0406400000001 268.39552 190.83264000000008 265.94304 192.2099200000001S260.65408 194.26816000000008 257.4336 194.26816000000008C254.09024000000002 194.24768 251.136 193.61792 248.56576 192.36864z M343.62879999999996 233.6768L338.61632 205.184L338.96448 204.8256C342.43584 208.28672000000003 346.13248 210.76992 350.07488 212.26496000000003C354.0224 213.76000000000002 358.50239999999997 214.50752000000003 363.51488 214.50752000000003C369.73568 214.50752000000003 375.22432000000003 213.37088000000003 380.01151999999996 211.10272000000003C384.78848 208.82944000000003 388.82304 205.78304000000003 392.10495999999995 201.96352000000005C395.3919999999999 198.13888000000006 397.8956799999999 193.62816000000007 399.6313599999999 188.43136000000004C401.3619199999999 183.22944000000007 402.2323199999999 177.69984000000005 402.2323199999999 171.85792000000004C402.2323199999999 165.40160000000003 400.97791999999987 159.40096000000005 398.4691199999999 153.84064000000006C395.9705599999999 148.29056000000003 392.5913599999999 143.48288000000002 388.3417599999999 139.42272000000003C384.10239999999993 135.35744000000005 379.1718399999999 132.22400000000005 373.5551999999999 130.01728000000003C367.9334399999999 127.80032 361.9635199999999 126.75072000000006 355.6351999999999 126.87872000000004C349.54751999999996 126.87872000000004 343.72095999999993 127.68768000000006 338.16575999999986 129.30560000000003C332.6054399999999 130.91328 327.67487999999986 133.39648 323.3740799999999 136.74496000000005C319.07327999999984 140.07808000000006 315.63775999999984 144.23552 313.07263999999986 149.19680000000005C310.4972799999999 154.15808000000004 309.15583999999984 159.91808000000003 309.03807999999987 166.48704000000004H334.4844799999999C335.0835199999999 160.75776000000002 337.23391999999996 156.18560000000002 340.9459199999999 152.77568000000008C344.6476799999999 149.37600000000003 349.36831999999987 147.67616000000004 355.1027199999999 147.67616000000004C358.44607999999994 147.67616000000004 361.4617599999999 148.35712000000007 364.1599999999999 149.72928000000007C366.8428799999999 151.10656000000006 369.11616 152.88832000000008 370.9695999999999 155.10528000000005C372.8127999999999 157.31712000000005 374.2566399999999 159.88736000000006 375.27039999999994 162.81600000000003C376.27903999999995 165.73440000000005 376.79615999999993 168.75520000000006 376.79615999999993 171.86816000000005C376.79615999999993 175.0937600000001 376.30976 178.14016000000004 375.36256 181.00736000000006C374.3999999999999 183.87456000000003 372.97151999999994 186.38336000000004 371.06175999999994 188.53376000000003C369.14687999999995 190.68416000000002 366.8838399999999 192.35840000000005 364.25215999999995 193.54624000000004S358.58431999999993 195.34336000000002 355.11295999999993 195.34336000000002C350.57151999999996 195.34336000000002 346.87487999999996 194.53952000000004 344.00255999999996 192.91648000000004C341.1302399999999 191.30880000000002 338.44736 188.75904000000003 335.93855999999994 185.30816000000004H312.99583999999993L325.35551999999996 254.64832000000004H395.41760000000005V233.68192000000005H343.62879999999996z" />
    <glyph glyph-name="days-366"
      unicode="&#xF11C;"
      horiz-adv-x="512" d=" M256 448C114.61120000000001 448 0 333.3888 0 192S114.61120000000001 -64 256 -64S512 50.6112 512 192S397.3888 448 256 448zM256 -12.800000000000011C142.88896 -12.800000000000011 51.2 78.88896 51.2 192S142.88896 396.8 256 396.8S460.8 305.11104 460.8 192S369.11104 -12.800000000000011 256 -12.800000000000011z M156.46208000000001 203.92448C159.56480000000002 204.16 162.46272000000002 204.84608 165.15072 205.98272C167.83872 207.11424 170.04544 208.75776000000002 171.78112000000002 210.90816C173.51168 213.05856000000003 174.38208000000003 215.92576 174.38208000000003 219.50976000000003C174.38208000000003 224.88576 172.58496000000002 229.00736 169.00096000000002 231.87456C165.42208000000002 234.74176000000003 161.29536000000002 236.17536000000004 156.64128000000002 236.17536000000004C150.18496000000002 236.17536000000004 145.31584 234.05056000000005 142.03392 229.8112C138.74176 225.57184 137.16479999999999 220.22144000000003 137.28256 213.77536000000003H113.08544C113.32608 220.22656000000003 114.48832 226.10944000000003 116.5824 231.42400000000004C118.67648 236.73856000000004 121.60000000000001 241.31072000000003 125.3632 245.13536000000002S133.63712 251.91424000000004 138.89536 254.00320000000002C144.14848 256.09216000000004 150.00576 257.14176000000003 156.46208000000001 257.14176000000003C161.47456 257.14176000000003 166.49728 256.39424 171.50976000000003 254.8992C176.52736000000002 253.40416000000002 181.03296000000003 251.16160000000002 185.04192000000003 248.18176000000003C189.04064000000002 245.19168000000002 192.30208000000002 241.55136000000002 194.80576000000002 237.25056000000004C197.31456000000003 232.94976000000003 198.56896 227.98848000000004 198.56896 222.37696000000003C198.56896 216.28416000000004 197.10464000000002 210.90816 194.18112000000002 206.24896000000004C191.25248 201.58976000000004 186.85952 198.42560000000003 181.01248 196.75136000000006V196.39296000000004C187.93984 194.84160000000006 193.37727999999998 191.49312000000003 197.31968 186.36288000000002C201.2672 181.22240000000005 203.23328 175.07328000000007 203.23328 167.91040000000004C203.23328 161.33120000000008 201.94816000000003 155.46880000000004 199.37792000000002 150.33856000000003C196.80768 145.19808000000006 193.37728000000004 140.89728000000002 189.07648 137.43104C184.77056000000002 133.96992 179.81440000000003 131.34336000000002 174.20288000000002 129.55136C168.58112000000003 127.75936000000002 162.73408 126.86336 156.64128000000002 126.86336C149.58592000000002 126.86336 143.16544 127.88224000000002 137.37472000000002 129.92512C131.57888 131.94752000000005 126.64832000000003 134.90688 122.58816000000003 138.78271999999998C118.52288000000003 142.66368 115.38944000000004 147.42528 113.17760000000003 153.02143999999998C110.96576000000003 158.64319999999998 109.92128000000002 165.08927999999997 110.04416000000003 172.38016H134.24128000000002C134.35392000000002 169.03168 134.89664000000002 165.84191999999996 135.84896000000003 162.79039999999998S138.17856000000003 157.12256000000002 139.97056000000003 154.91071999999997C141.76768 152.68864000000002 144.00512000000003 150.93248 146.68800000000005 149.62176C149.37600000000003 148.30079999999998 152.57088000000005 147.65055999999998 156.27776000000003 147.65055999999998C162.01216000000005 147.65055999999998 166.84544000000002 149.41183999999998 170.79296000000002 152.92928C174.73536000000004 156.45695999999998 176.70656000000002 161.26975999999996 176.70656000000002 167.35744C176.70656000000002 172.13951999999995 175.77472000000003 175.77983999999998 173.92640000000003 178.28864C172.07296000000002 180.79744 169.71776000000003 182.62015999999994 166.84544000000002 183.75679999999994C163.97824 184.88831999999996 160.84480000000002 185.54879999999997 157.44000000000003 185.72799999999995C154.03520000000003 185.90719999999993 150.77888000000004 185.9993599999999 147.67616 185.9993599999999V203.91935999999993C150.43072 203.68383999999998 153.35424 203.68383999999998 156.46208000000001 203.92448z M270.25408 233.31328000000002C267.26912 236.41600000000003 263.56224 237.97248 259.14368 237.97248C254.60224 237.97248 250.80831999999998 236.62592 247.76192 233.93792000000002C244.71552 231.24992 242.29888 227.96288 240.50688 224.08192000000003C238.70976 220.19584000000003 237.39903999999999 216.04352000000003 236.55935999999997 211.62496000000002C235.7248 207.20128000000003 235.24352 203.25888000000003 235.12575999999999 199.79776L235.48415999999997 199.43936000000002C238.95039999999997 204.45695999999998 243.01055999999997 208.04096 247.66976 210.19136000000003C252.32895999999997 212.34176000000002 257.70495999999997 213.41696000000002 263.79776 213.41696000000002C269.17375999999996 213.41696000000002 274.42176 212.24960000000002 279.56224 209.92000000000004S289.05472 204.45696000000004 292.64896 200.51456000000002C295.99231999999995 196.68992 298.4448 192.32768000000004 299.99616 187.42784C301.55776 182.52800000000002 302.32576 177.57696000000004 302.32576 172.55936000000003C302.32576 166.10816 301.28639999999996 160.09728 299.19744 154.54720000000003C297.10848 148.98687999999999 294.1184 144.14848 290.23744 140.02688C286.34624 135.90528 281.728 132.68480000000005 276.34688 130.35520000000002S264.99584 126.85311999999999 258.42688 126.85311999999999C248.98559999999998 126.85311999999999 241.16224 128.73216000000002 234.95167999999998 132.50560000000002C228.736 136.26368000000002 223.77471999999997 141.19424000000004 220.07807999999997 147.28704C216.3712 153.37472000000002 213.80095999999998 160.27648 212.37247999999997 167.98720000000003C210.93887999999995 175.68768 210.22207999999995 183.54688 210.22207999999995 191.55968000000001C210.22207999999995 199.3216 211.11807999999994 207.08352 212.90495999999996 214.85056C214.70207999999997 222.6176 217.56415999999993 229.63711999999998 221.51167999999996 235.904C225.45407999999998 242.17600000000002 230.52799999999996 247.28576 236.74367999999996 251.22816000000003C242.95423999999997 255.17056000000002 250.54207999999997 257.14176000000003 259.49695999999994 257.14176000000003C264.87807999999995 257.14176000000003 269.89056 256.36352 274.54463999999996 254.81216000000003C279.20383999999996 253.25568 283.33056 251.01824000000005 286.90943999999996 248.09472000000005C290.49343999999996 245.16608000000002 293.41695999999996 241.55136000000005 295.69023999999996 237.25056000000004C297.96352 232.94976000000003 299.45344 227.98848000000004 300.17024 222.37696000000003H275.98335999999995C275.1488 226.56511999999998 273.23904 230.20544 270.25408 233.31328000000002zM248.83712 192.36864C246.26688 191.10912000000002 244.14720000000003 189.40927999999997 242.47808 187.25888000000003C240.80384000000004 185.10848 239.54944 182.6304 238.71488000000002 179.82976000000002C237.88032000000004 177.00864 237.46048000000002 174.05952000000002 237.46048000000002 170.95168C237.46048000000002 168.08960000000002 237.91104000000004 165.25312000000002 238.80704000000003 162.44224000000003C239.70304000000002 159.63136000000003 241.01888000000002 157.13280000000003 242.75456000000003 154.92095999999998C244.48512000000002 152.69888000000003 246.60480000000004 150.94272 249.11360000000002 149.632C251.62240000000003 148.31104 254.4896 147.6608 257.7152 147.6608C260.81792 147.6608 263.54176 148.31104000000005 265.87136 149.632C268.20096 150.94272 270.20288 152.68352 271.87199999999996 154.83391999999998S274.80064 159.42144000000002 275.63007999999996 162.18624C276.46464 164.93568 276.88448 167.74656 276.88448 170.60863999999998C276.88448 173.59872000000001 276.50048 176.49664 275.71711999999997 179.30752C274.93888 182.10816 273.77664 184.61696 272.21504 186.8288C270.65855999999997 189.04064 268.66688 190.82752 266.2144 192.20992C263.76192 193.58208000000002 260.92544 194.26816000000002 257.69984 194.26816000000002C254.3616 194.24768 251.40736 193.61792 248.83712 192.36864z M369.88928 233.31328000000002C366.90432000000004 236.41600000000003 363.19744 237.97248 358.77888 237.97248C354.23744 237.97248 350.44352 236.62592 347.392 233.93792000000002C344.35072 231.24992 341.93407999999994 227.96288 340.14208 224.08192000000003C338.33984 220.19584000000003 337.03424 216.04352000000003 336.19455999999997 211.62496000000002C335.36511999999993 207.20128000000003 334.87872 203.25888000000003 334.76608 199.79776L335.11936000000003 199.43936000000002C338.58560000000006 204.45695999999998 342.64576 208.04096 347.30496 210.19136000000003C351.96416 212.34176000000002 357.34528 213.41696000000002 363.43296000000004 213.41696000000002C368.80896 213.41696000000002 374.06208 212.24960000000002 379.20256 209.92000000000004C384.33792 207.59040000000005 388.69504 204.45696000000004 392.28416000000004 200.51456000000002C395.62752000000006 196.68992 398.08512 192.32768000000004 399.63648 187.42784C401.19296 182.52800000000002 401.96608000000003 177.57696000000004 401.96608000000003 172.55936000000003C401.96608000000003 166.10816 400.91648000000004 160.09728 398.83264 154.54720000000003C396.74368000000004 148.98687999999999 393.7536 144.14848 389.87264000000005 140.02688C385.98656000000005 135.90528 381.3632 132.68480000000005 375.98720000000003 130.35520000000002C370.60608 128.0256 364.62592000000006 126.85311999999999 358.0672 126.85311999999999C348.62592000000006 126.85311999999999 340.80256 128.73216000000002 334.58688 132.50560000000002C328.3763200000001 136.26368000000002 323.40992 141.19424000000004 319.71840000000003 147.28704C316.00640000000004 153.37472000000002 313.4361600000001 160.27648 312.0128 167.98720000000003C310.5792 175.68768 309.85728000000006 183.54688 309.85728000000006 191.55968000000001C309.85728000000006 199.3216 310.75840000000005 207.08352 312.54528000000005 214.85056S317.19936 229.63711999999998 321.14688 235.904C325.0944 242.17600000000002 330.16832000000005 247.28576 336.384 251.22816000000003C342.59456 255.17056000000002 350.17728000000005 257.14176000000003 359.13728000000003 257.14176000000003C364.51840000000004 257.14176000000003 369.52576 256.36352 374.18496 254.81216000000003C378.84416 253.25568 382.96576000000005 251.01824000000005 386.54976000000005 248.09472000000005C390.13376000000005 245.16608000000002 393.05728000000005 241.55136000000005 395.33568 237.25056000000004C397.60384 232.94976000000003 399.09376 227.98848000000004 399.81568 222.37696000000003H375.62368000000004C374.78400000000005 226.56511999999998 372.87424 230.20544 369.88928 233.31328000000002zM348.47744 192.36864C345.90720000000005 191.10912000000002 343.78752000000003 189.40927999999997 342.11839999999995 187.25888000000003C340.44415999999995 185.10848 339.18976 182.6304 338.36032 179.82976000000002C337.52064 177.00864 337.10080000000005 174.05952000000002 337.10080000000005 170.95168C337.10080000000005 168.08960000000002 337.55136 165.25312000000002 338.45248 162.44224000000003C339.34848 159.63136000000003 340.66432000000003 157.13280000000003 342.40000000000003 154.92095999999998C344.13568 152.69888000000003 346.25536 150.94272 348.75904 149.632C351.26784 148.31104 354.13504 147.6608 357.36576 147.6608C360.46336 147.6608 363.1872 148.31104000000005 365.5168 149.632C367.8464 150.94272 369.85344 152.68352 371.52768000000003 154.83391999999998C373.1968 156.98432000000003 374.44608 159.42144000000002 375.28576000000004 162.18624C376.1152000000001 164.93568 376.53504000000004 167.74656 376.53504000000004 170.60863999999998C376.53504000000004 173.59872000000001 376.14592000000005 176.49664 375.36768000000006 179.30752C374.58944 182.10816 373.42208000000005 184.61696 371.87072 186.8288C370.30911999999995 189.04064 368.31232000000006 190.82752 365.86496 192.20992C363.41248 193.58208000000002 360.58112 194.26816000000002 357.35040000000004 194.26816000000002C353.9968 194.24768 351.04256000000004 193.61792 348.47744 192.36864z" />
    <glyph glyph-name="days-7"
      unicode="&#xF11D;"
      horiz-adv-x="512" d=" M256 448C114.61120000000001 448 0 333.3888 0 192S114.61120000000001 -64 256 -64S512 50.6112 512 192S397.3888 448 256 448zM256 -12.800000000000011C142.88896 -12.800000000000011 51.2 78.88896 51.2 192S142.88896 396.8 256 396.8S460.8 305.11104 460.8 192S369.11104 -12.800000000000011 256 -12.800000000000011z M281.35424 211.70687999999998C276.2752 203.34591999999998 272.03584 194.42687999999998 268.63104 185.01119999999997C265.22624 175.56991999999997 262.59456 166.01088 260.74624 156.33919999999995C258.89792 146.65727999999996 257.90464000000003 137.64095999999995 257.80224 129.27999999999997H230.55360000000002C231.98720000000003 148.02943999999997 236.38016 166.07232 243.72224000000003 183.39839999999998C251.07456000000002 200.70911999999998 260.7104 216.6016 272.66048 231.06047999999998H213.17632000000003V254.71487999999997H298.8288V232.85247999999999C292.25472 227.1232 286.42304 220.07295999999997 281.35424 211.70687999999998z" />
    <glyph glyph-name="dot"
      unicode="&#xF11E;"
      horiz-adv-x="512" d=" M153.60512 188.288C153.60512 131.73686931524583 199.44886931524587 85.89311999999995 256 85.89311999999995C312.5511306847541 85.89311999999995 358.39488 131.73686931524583 358.39488 188.288C358.39488 244.8391306847541 312.5511306847541 290.68287999999995 256 290.68287999999995C199.44886931524587 290.68287999999995 153.60512 244.8391306847541 153.60512 188.288z" />
    <glyph glyph-name="down-circle"
      unicode="&#xF11F;"
      horiz-adv-x="512" d=" M401.59744 49.61279999999999C481.14176 130.02751999999998 480.44032 259.69151999999997 400.03072000000003 339.23584C319.62112 418.7904 189.952 418.08384 110.40256 337.67424C30.85824 257.26464 31.55455999999999 127.60064 111.96415999999999 48.051199999999994C192.37887999999998 -31.49824000000001 322.048 -30.79680000000002 401.59744 49.61279999999999zM101.85216000000001 233.7536L145.29536000000002 277.1968L256 165.71391999999997L366.67904000000004 276.39296L410.12224000000003 232.94976000000003L256 78.82239999999996L101.85216000000001 233.7536z" />
    <glyph glyph-name="envelope"
      unicode="&#xF120;"
      horiz-adv-x="512" d=" M51.2 345.6V33.27999999999997H460.8V345.6H51.2zM359.94112 294.4L256 190.45887999999997L152.05888000000002 294.4H359.94112zM409.6 89.59999999999997H102.4V272.5632L256 118.84544L409.6 272.57344V89.59999999999997z" />
    <glyph glyph-name="facebook-square"
      unicode="&#xF121;"
      horiz-adv-x="512" d=" M0 448V-64H512V448H0zM340.18816 310.48191999999995C340.18816 310.48191999999995 311.73632 310.48191999999995 300.42624 310.48191999999995C286.39744 310.48191999999995 283.46880000000004 304.7424 283.46880000000004 290.22208C283.46880000000004 278.13376 283.46880000000004 255.13983999999996 283.46880000000004 255.13983999999996H340.18304000000006L334.72512 193.56159999999997H283.47392V9.599999999999966H210.02240000000003V192.77824H171.82208000000003V255.13984H210.02240000000003C210.02240000000003 255.13984 210.02240000000003 264.10496 210.02240000000003 304.24576C210.02240000000003 350.34112 234.65984 374.4 289.32608 374.4C298.28096 374.4 340.19328 374.4 340.19328 374.4V310.48191999999995z" />
    <glyph glyph-name="facebook"
      unicode="&#xF122;"
      horiz-adv-x="512" d=" M350.53056 325.02783999999997C350.53056 325.02783999999997 318.58688 325.02783999999997 305.88416 325.02783999999997C290.13504 325.02783999999997 286.84799999999996 318.58176000000003 286.84799999999996 302.27968C286.84799999999996 288.70655999999997 286.84799999999996 262.89152 286.84799999999996 262.89152H350.53056L344.40191999999996 193.75104000000002H286.85311999999993V-12.800000000000011H204.37504V192.87552H161.47968V262.89664H204.37504C204.37504 262.89664 204.37504 272.96256 204.37504 318.03391999999997C204.37504 369.78688 232.0384 396.8 293.41696 396.8C303.47264 396.8 350.53056 396.8 350.53056 396.8V325.02783999999997z" />
    <glyph glyph-name="fast-backward"
      unicode="&#xF123;"
      horiz-adv-x="512" d=" M435.2 324.32128L296.96 244.92544L296.96 324.32128L76.42623999999999 192L296.96 59.67872L296.96 139.07455999999996L435.2 59.67872z" />
    <glyph glyph-name="fast-forward"
      unicode="&#xF124;"
      horiz-adv-x="512" d=" M432.32768 192L204.8 328.51968L204.8 246.60479999999998L76.8 328.51968L76.8 55.480320000000006L204.8 137.3952L204.8 55.480320000000006z" />
    <glyph glyph-name="forward"
      unicode="&#xF125;"
      horiz-adv-x="512" d=" M337.92 330.24L337.92 192L337.92 53.75999999999999L394.24 53.75999999999999L394.24 330.24z M112.64 55.480320000000006L340.16767999999996 192L112.64 328.51968z" />
    <glyph glyph-name="fullscreen"
      unicode="&#xF126;"
      horiz-adv-x="512" d=" M286.72 396.8L286.72 345.6L370.6624 345.6L275.64032 250.69567999999998L313.58976 213.79072L409.6 308.86912L409.6 222.72L460.8 222.72L460.8 396.8z M197.51424 168.8576L102.4 73.33375999999998L102.4 161.27999999999997L51.2 161.27999999999997L51.2 -12.800000000000011L225.28 -12.800000000000011L225.28 38.39999999999998L139.55584000000002 38.39999999999998L234.56768 132.40832z" />
    <glyph glyph-name="glass"
      unicode="&#xF127;"
      horiz-adv-x="512" d=" M128 376.32H384V325.12H128z M383.83616 299.52H128.16384H128V217.6H128.04608000000002C128.90112 175.64671999999996 172.56448 140.79487999999998 230.4 132.72575999999998V58.879999999999995H153.6V7.680000000000007H358.40000000000003V58.879999999999995H281.6V132.72575999999998C339.43552000000005 140.79487999999998 383.09888 175.64671999999996 383.95392 217.6H384V299.52H383.83616z" />
    <glyph glyph-name="google-plus-square"
      unicode="&#xF128;"
      horiz-adv-x="512" d=" M267.49952 77.28127999999998C267.49952 43.304959999999994 239.17056000000002 16.757759999999962 180.50560000000002 16.757759999999962C134.62528000000003 16.757759999999962 101.49376000000001 45.040639999999996 101.49376000000001 79.01184C101.49376000000001 112.31232000000006 140.36992 141.03552000000002 186.25024 140.54399999999998C237.1584 140.53888 267.49952 109.66528 267.49952 77.28127999999998zM512 448V-64H0V448H512zM307.02592 81.22879999999998C307.02592 112.59391999999997 294.99392 133.08927999999997 258.60608 159.63135999999997C221.70112 185.84575999999998 212.67968000000002 200.65791999999996 247.9104 227.1744C267.75552 242.1248 281.67168000000004 262.04672 281.67168000000004 286.6432C281.67168000000004 313.43616 270.41792000000004 337.75104 249.26208000000003 349.55776000000003H279.24992000000003L304.77824000000004 375.6544C304.77824000000004 375.6544 208.52224 375.6544 190.52032 375.6544C119.19872 375.6544 84.21888 334.02368 84.21888 288.22528C84.21888 241.42336 117.18655999999999 204.56448 181.57568 204.56448C171.5968 184.94464 175.60064 166.81984 191.92831999999999 153.86624C81.9712 153.86624 58.44479999999998 106.87487999999996 58.44479999999998 70.6816C58.44479999999998 23.787519999999972 113.80223999999998 -4.09087999999997 180.17791999999997 -4.09087999999997C270.94527999999997 -4.090880000000027 307.02592 42.75199999999995 307.02592 81.22879999999998zM456.04352 319.20128H403.33312V370.52927999999997H376.97536V319.20128H324.25984V293.53472H376.97536V242.20160000000004H403.33312V293.53472H456.04352V319.20128L456.04352 319.20128zM235.76064 284.97407999999996C230.4512 324.352 204.09856 356.6592 173.31712 357.56543999999997C142.52032 358.46144 121.87648 328.32 127.18592000000001 288.93696C132.50560000000002 249.55392 161.77152 222.04416 192.57344 221.14303999999998C223.35488 220.25216 241.07008000000002 245.59104 235.76064 284.97407999999996z" />
    <glyph glyph-name="google-plus"
      unicode="&#xF129;"
      horiz-adv-x="512" d=" M409.6 325.12L409.6 376.32L384 376.32L384 325.12L322.56 325.12L322.56 299.52L384 299.52L384 243.2L409.6 243.2L409.6 299.52L460.8 299.52L460.8 325.12z M258.65728 158.81216C220.60032 185.84575999999998 211.30239999999998 201.1136 247.62879999999998 228.45952C268.09344 243.87584 282.43967999999995 265.01120000000003 282.43967999999995 290.37568C282.43967999999995 318.0032 270.83263999999997 340.48 249.02143999999998 355.84000000000003H279.94624L306.27328 381.44C306.27328 381.44 207.02208 381.44 188.45695999999995 381.44C114.91839999999996 381.44 78.84799999999996 338.57536 78.84799999999996 291.34848C78.84799999999996 243.09248 112.84479999999996 205.11744 179.23071999999996 205.11744C168.93952 184.8832 173.07135999999994 166.21056 189.91103999999996 152.85248C76.52863999999997 152.85248 52.26495999999996 104.40704 52.26495999999996 67.08735999999999C52.26495999999996 18.73407999999995 109.34783999999996 -10.009600000000091 177.79199999999997 -10.009600000000091C271.38048 -10.009600000000091 308.58752 38.2924799999999 308.58752 77.96735999999987C308.5824 110.30527999999998 296.17664 131.44063999999997 258.65728 158.81216zM123.14112 292.13696C117.66784 332.7488 138.9568 363.8272 170.71104 362.9056C202.44992 361.96864 229.62176 328.66304 235.09504 288.05632C240.56832000000003 247.44448 222.30528000000004 221.31712 190.57152000000002 222.2336C158.80704 223.1552 128.62976 251.52512 123.14112 292.13696zM178.11968000000002 11.484159999999974C130.816 11.484159999999974 96.65536 40.64767999999998 96.65536 75.67871999999994C96.65536 110.01855999999992 136.73984000000002 139.63775999999996 184.04352 139.12575999999996C236.53888 139.12575999999996 267.82207999999997 107.2895999999999 267.82207999999997 73.89695999999998C267.8272 38.86079999999998 238.61248 11.484159999999974 178.11968000000002 11.484159999999974z" />
    <glyph glyph-name="heart"
      unicode="&#xF12A;"
      horiz-adv-x="512" d=" M460.8 294.4C460.8 350.95552 414.95552 396.8 358.40000000000003 396.8S256 350.95552 256 294.4C256 350.95552 210.15552 396.8 153.6 396.8S51.2 350.95552 51.2 294.4C51.2 268.42112 61.13792000000001 250.51648 76.89728000000001 226.71872L76.8 226.68288L256 -12.800000000000011L436.51584 228.1984L436.46464000000003 228.21887999999998C451.17951999999997 251.12063999999998 460.8 269.14815999999996 460.8 294.4z" />
    <glyph glyph-name="info"
      unicode="&#xF12B;"
      horiz-adv-x="512" d=" M400.81408000000005 336.81408C320.83456 416.79359999999997 191.16544000000002 416.79359999999997 111.18592000000004 336.81408S31.20640000000004 127.16543999999999 111.18592000000004 47.18592000000001S320.83456000000007 -32.79359999999997 400.81408000000005 47.18592000000001S480.7936 256.83456 400.81408000000005 336.81408zM296.96 53.75999999999999H215.04V243.2H296.96V53.75999999999999zM256.22016 264.61184000000003C232.31488000000002 264.61184000000003 216.81664 281.64096 216.37632 305.10591999999997C216.37632 328.12544 232.31488 345.6 256.22015999999996 345.6H256.6656C279.69023999999996 345.6 295.62368 328.05376 295.62368 305.03423999999995C295.62368 281.56928 279.2448 264.61184000000003 256.22016 264.61184000000003z" />
    <glyph glyph-name="instagram"
      unicode="&#xF12C;"
      horiz-adv-x="512" d=" M421.6 440H90.4C44.8 440 8 403.2 8 357.6V26.399999999999977C8 -19.19999999999999 44.8 -56 90.4 -56H421.6C467.2 -56 504 -19.19999999999999 504 26.399999999999977L504 357.59999999999997C504 403.2 467.2 440 421.6 440zM166.4 223.2H344.8C348 213.6 350.40000000000003 203.2 350.40000000000003 192C350.40000000000003 140 308.00000000000006 97.60000000000002 256 97.60000000000002C204 97.60000000000002 161.6 140 161.6 192.00000000000003C161.6 203.2 163.2 213.6 166.4 223.2zM442.4 223.2V99.19999999999999V36.80000000000001C442.4 20 428.79999999999995 5.600000000000023 411.2 5.600000000000023H100.8C84 5.600000000000023 69.6 19.200000000000045 69.6 36.80000000000001V99.19999999999999V223.2V223.2H118.39999999999999C115.99999999999999 213.6 115.19999999999999 203.2 115.19999999999999 192C115.19999999999999 114.39999999999998 178.39999999999998 51.19999999999999 256 51.19999999999999C333.6 51.19999999999999 396.8 114.39999999999998 396.8 192C396.8 202.4 396 212.8 393.6 223.2L442.4 223.2L442.4 223.2zM442.4 331.2C442.4 322.4 435.2 316 427.2 316H396C387.2 316 380.8 323.2 380.8 331.2V362.4C380.8 371.2 388 377.6 396 377.6H427.2C436 377.6 442.4 370.4 442.4 362.4V331.2z" />
    <glyph glyph-name="knife-fork"
      unicode="&#xF12D;"
      horiz-adv-x="512" d=" M235.52 396.8L235.52 243.2L209.92000000000002 243.2L209.92000000000002 243.2L209.92000000000002 396.8L158.72 396.8L158.72 243.2L158.72 243.2L133.12 243.2L133.12 396.8L81.92 396.8L81.92 243.2L81.92 192L133.12 192L158.72 192L158.72 -12.800000000000011L209.92000000000002 -12.800000000000011L209.92000000000002 192L235.52 192L286.72 192L286.72 243.2L286.72 396.8z M430.08 279.69536C430.08 321.38239999999996 408.32 396.8 348.16 396.8H322.56V-12.800000000000011H373.76V161.62815999999998C408.70912 178.10432000000003 430.08 238.86848 430.08 279.69536z" />
    <glyph glyph-name="left-circle"
      unicode="&#xF12E;"
      horiz-adv-x="512" d=" M111.9744 46.40767999999997C192.38400000000001 -33.13664 322.048 -32.43519999999995 401.60256000000004 47.9744S480.44544 258.05312000000004 400.03584 337.59744S189.96224000000004 416.44544 110.41280000000003 336.03584C30.858240000000002 255.62112000000002 31.5648 125.952 111.9744 46.40767999999997zM296.11008000000004 346.15296L339.55328000000003 302.70975999999996L228.0704 192L338.74944000000005 81.32095999999996L295.30624000000006 37.87775999999997L141.17888000000002 192L296.11008000000004 346.15296z" />
    <glyph glyph-name="link-external"
      unicode="&#xF12F;"
      horiz-adv-x="512" d=" M273.85856 399.36L273.85856 344.50432L369.72032 344.50432L217.62048 192.40448L256.4096 153.61536L408.50944000000004 305.72544L408.50944000000004 209.85855999999998L463.36 209.85855999999998L463.36 399.36z M362.81856 39.48543999999998L103.49568 39.48543999999998L103.49568 298.81344L238.14144000000002 298.81344L238.14144000000002 353.66912L48.64 353.66912L48.64 -15.360000000000014L417.67424 -15.360000000000014L417.67424 174.14144L362.81856 174.14144z" />
    <glyph glyph-name="linked"
      unicode="&#xF130;"
      horiz-adv-x="512" d=" M444.05248 381.79328C403.58912 422.272 337.35168 422.272 296.86271999999997 381.79328L248.42239999999998 333.3376C220.90239999999997 305.81759999999997 259.83488 278.40512 280.49408 297.94304L330.60352 348.05248C352.56832 370.02752 388.34176 370.02752 410.3168 348.05248L412.04735999999997 346.32704C434.0224 324.352 434.0224 288.59392 412.04735999999997 266.61375999999996L318.26944 172.82047999999998C296.28928 150.85055999999997 260.5312 150.85055999999997 238.56128 172.82559999999995L236.81536 174.55615999999998C233.37472000000002 177.99679999999995 230.48704 182.52799999999996 229.82656 183.20383999999996C209.41312 204.27264 172.92288000000002 176.47616 193.87392 151.45983999999999C194.55488000000003 150.64575999999994 199.7312 144.18943999999993 203.08991999999998 140.82047999999992L204.83584 139.08479999999997C245.29408 98.6060799999999 311.53664 98.6060799999999 352.02047999999996 139.07967999999994L445.82399999999996 232.8832C486.29759999999993 273.3568 486.29759999999993 339.60447999999997 445.82399999999996 380.07808L444.0831999999999 381.81376L444.05248 381.79328zM308.93056 243.21024L307.2 244.93056C266.72128000000004 285.4144 200.47872 285.40927999999997 160.00512 244.93056L66.21696 151.1424C25.74848 110.66368 25.74848 44.42111999999997 66.21696 3.9424000000000206L67.95264 2.211840000000052C108.43648000000002 -38.271999999999935 174.6688 -38.271999999999935 215.15776000000002 2.211840000000052L270.40256 56.64256000000006C295.68512000000004 81.9251200000001 256.41472000000005 110.95040000000006 234.33216000000002 88.87296000000009L181.41696 35.94752C159.44704 13.967359999999985 123.69408 13.967359999999985 101.70367999999999 35.94752L99.97823999999999 37.67295999999999C77.99295999999998 59.648000000000025 77.99295999999998 95.41120000000001 99.97823999999999 117.38624000000004L193.76128 211.2C215.74656 233.16479999999999 251.50464 233.15968 273.47968000000003 211.2L275.21024 209.44896C278.65088000000003 206.01344 282.62912 201.85088 282.88 201.6C302.08 182.39999999999998 337.28000000000003 210.56 318.17216 232.56063999999998C317.66528000000005 233.1392 312.31488 239.81568 308.95104 243.21536H308.93056z" />
    <glyph glyph-name="live"
      unicode="&#xF131;"
      horiz-adv-x="512" d=" M1.4592000000000007 191.68256000000002C1.4592000000000007 171.521073836577 17.803313836576983 155.17696 37.964800000000004 155.17696C58.12628616342302 155.17696 74.4704 171.521073836577 74.4704 191.68256000000002C74.4704 211.84404616342303 58.12628616342302 228.18816 37.964800000000004 228.18816C17.803313836576983 228.18816 1.4592000000000007 211.84404616342303 1.4592000000000007 191.68256000000002z M195.74784 257.91999999999996L167.82336 257.91999999999996L143.0016 127.21151999999995L221.15328000000002 127.21151999999995L225.80736000000002 151.64416L175.57504 151.64416z M236.86656 127.21151999999995L264.78592000000003 127.21151999999995L289.60768 257.91999999999996L261.6832 257.91999999999996z M387.35360000000003 257.91999999999996L358.06208 195.86048C351.66720000000004 182.28735999999998 345.46176 168.32 340.61312 155.52511999999996H340.22911999999997C339.45088 169.09312 338.4832 181.70367999999996 337.1264 195.66591999999997L331.30496 257.91488H302.40768L318.69952 127.20639999999997H351.08864L418.57536 257.91488H387.35360000000003z M506.61888 234.0608L511.27296 257.91999999999996L433.89952 257.91999999999996L409.07776 127.21151999999995L489.36447999999996 127.21151999999995L493.824 151.06560000000002L441.65632 151.06560000000002L447.66720000000004 182.67136L494.01856000000004 182.67136L498.66752 206.14144L451.93216 206.14144L457.36447999999996 234.0608z" />
    <glyph glyph-name="mail"
      unicode="&#xF132;"
      horiz-adv-x="512" d=" M31.2 390.4C31.2 390.4 240 401.6 480 390.4L256 128L31.2 390.4z M1.6 344L3.2 24.80000000000001L150.4 172.8z M39.2 -11.199999999999989L184 133.60000000000002L256 49.60000000000002L328 133.60000000000002L472.8 -11.199999999999989z M360.8 172.8L508.8 24.80000000000001L510.4 344z" />
    <glyph glyph-name="menu"
      unicode="&#xF133;"
      horiz-adv-x="512" d=" M481.28000000000003 324.68992000000003C481.28000000000003 341.89312 467.33312 355.84000000000003 450.12991999999997 355.84000000000003H56.75008C39.54688 355.84000000000003 25.6 341.89312 25.6 324.68992000000003V320.43008C25.6 303.22688 39.54688 289.28 56.75008 289.28H450.12991999999997C467.33312 289.28 481.28000000000003 303.22688 481.28000000000003 320.43008V324.68992000000003z M481.28000000000003 191.56991999999997C481.28000000000003 208.77312 467.33312 222.72 450.12991999999997 222.72H56.75008C39.54688 222.72 25.6 208.77312 25.6 191.56991999999997V187.31007999999997C25.6 170.10688 39.54688 156.15999999999997 56.75008 156.15999999999997H450.12991999999997C467.33312 156.15999999999997 481.28000000000003 170.10688 481.28000000000003 187.31008000000003V191.56991999999997z M481.28000000000003 58.44991999999996C481.28000000000003 75.65312 467.33312 89.59999999999997 450.12991999999997 89.59999999999997H56.75008C39.54688 89.59999999999997 25.6 75.65312 25.6 58.44991999999996V54.19008000000002C25.6 36.986879999999985 39.54688 23.039999999999964 56.75008 23.039999999999964H450.12991999999997C467.33312 23.039999999999964 481.28000000000003 36.986879999999985 481.28000000000003 54.19008000000002V58.44991999999996z" />
    <glyph glyph-name="minus-circle"
      unicode="&#xF134;"
      horiz-adv-x="512" d=" M256 396.8C142.88896 396.8 51.2 305.10591999999997 51.2 192S142.88896 -12.800000000000011 256 -12.800000000000011S460.8 78.89407999999997 460.8 192S369.11104 396.8 256 396.8zM384 161.27999999999997H128V227.84H384V161.27999999999997z" />
    <glyph glyph-name="minus-square"
      unicode="&#xF135;"
      horiz-adv-x="512" d=" M51.2 396.8V-12.800000000000011H460.8V396.8H51.2zM389.12 161.27999999999997H128V227.84H389.12V161.27999999999997z" />
    <glyph glyph-name="minus"
      unicode="&#xF136;"
      horiz-adv-x="512" d=" M51.2 227.84H460.8V156.15999999999997H51.2z" />
    <glyph glyph-name="new-window"
      unicode="&#xF137;"
      horiz-adv-x="512" d=" M153.6 396.8V294.4H51.2V-12.800000000000011H358.40000000000003V89.59999999999997H460.8V396.8H153.6zM307.2 38.39999999999998H102.4V192H153.6V89.59999999999997H307.2V38.39999999999998zM409.6 140.8H358.40000000000003H307.2H204.8V192V294.4H358.40000000000003H409.6V140.8z" />
    <glyph glyph-name="pause"
      unicode="&#xF138;"
      horiz-adv-x="512" d=" M122.07104 375.46496H227.04127999999997V10.982399999999984H122.07103999999998z M296.1664 375.46496H401.13664V10.982399999999984H296.1664z" />
    <glyph glyph-name="pen"
      unicode="&#xF139;"
      horiz-adv-x="512" d=" M349.41952 17.889279999999985L350.48447999999996 16.819199999999967L440.29440000000005 1.848320000000001L425.32864 91.66847999999999L424.26368 92.72832L398.53568 43.62239999999997z M-56.32 314.88H-56.32V314.88H-56.32z M322.83136 44.47744L371.94752 70.20544000000001L397.68064 119.32160000000005L228.8384 288.15872L153.98912 213.30944z" />
    <glyph glyph-name="phone-ban"
      unicode="&#xF13A;"
      horiz-adv-x="512" d=" M256 448C114.61632 448 0 333.38368 0 192S114.61632 -64 256 -64C397.37856 -64 512 50.61631999999997 512 192S397.37856 448 256 448zM51.2 192C51.2 305.10591999999997 142.88896 396.8 256 396.8C300.6976 396.8 342.02112 382.4384 375.69023999999996 358.13376L343.37792 325.82656C338.82112 337.37728 327.66976 345.6 314.71104 345.6H197.29919999999998C180.31104 345.6 166.4 331.4944 166.4 314.25023999999996V148.83839999999998L89.86624 72.30464C65.5616 105.97888 51.2 147.30240000000003 51.2 192zM203.008 97.95584000000002L320.88576 215.8336V97.95584000000002H203.008zM277.63712 66.60608000000002C277.63712 57.95328000000001 267.94496 50.92864000000003 256.00512 50.92864000000003C244.06528 50.92864000000003 234.37824 57.93792000000002 234.37824 66.60608000000002C234.37824 75.26400000000001 244.06528000000003 82.28352000000001 256.00512000000003 82.28352000000001C267.94496 82.27839999999998 277.63712 75.26400000000001 277.63712 66.60608000000002zM191.12448 173.56288V304.84992H320.89088V303.33952L191.12448 173.56288zM256 -12.800000000000011C209.91488 -12.800000000000011 167.38816 2.4319999999999595 133.1712 28.113920000000007L167.33184000000003 62.27455999999995C170.65984 48.619519999999966 182.84544000000002 38.39999999999998 197.30432000000002 38.39999999999998H314.71616C331.69919999999996 38.39999999999998 345.60512000000006 52.50559999999996 345.60512000000006 69.73951999999997V240.54271999999997L419.88608 314.8288C445.56800000000004 280.60672 460.8 238.08512 460.8 192C460.8 78.89408000000003 369.11104 -12.800000000000011 256 -12.800000000000011z" />
    <glyph glyph-name="phone"
      unicode="&#xF13B;"
      horiz-adv-x="512" d=" M372.8 142.39999999999998C339.2 108.79999999999995 339.2 76 306.4 76S239.99999999999997 109.60000000000002 206.39999999999998 142.39999999999998S139.99999999999997 208.79999999999998 139.99999999999997 242.39999999999998S173.59999999999997 276 206.39999999999998 308.79999999999995S139.2 441.6 106.4 441.6S6.4 341.6 6.4 341.6C6.4 275.2 75.2 140 140 75.20000000000005C204.8 10.400000000000034 340 -58.39999999999998 406.4 -58.39999999999998C406.4 -58.39999999999998 506.4 8 506.4 41.60000000000002S405.6 175.2 372.8 142.39999999999998z" />
    <glyph glyph-name="play-square"
      unicode="&#xF13C;"
      horiz-adv-x="512" d=" M51.2 396.8V-12.800000000000011H460.8V396.8H51.2zM153.6 38.39999999999998V345.6L409.6 192L153.6 38.39999999999998z" />
    <glyph glyph-name="play"
      unicode="&#xF13D;"
      horiz-adv-x="512" d=" M384 192L128 38.39999999999998L128 345.6z" />
    <glyph glyph-name="plus-circle"
      unicode="&#xF13E;"
      horiz-adv-x="512" d=" M256 396.8C142.88896 396.8 51.2 305.10591999999997 51.2 192S142.88896 -12.800000000000011 256 -12.800000000000011S460.8 78.89407999999997 460.8 192S369.11104 396.8 256 396.8zM291.84000000000003 156.15999999999997V58.879999999999995H220.16V156.15999999999997H122.88V222.72H220.16V325.12H291.84000000000003V222.72H389.12V156.15999999999997H291.84000000000003z" />
    <glyph glyph-name="plus-square"
      unicode="&#xF13F;"
      horiz-adv-x="512" d=" M51.2 396.8V-12.800000000000011H460.8V396.8H51.2zM384 161.27999999999997H286.72V64H220.16V161.27999999999997H128V227.84H220.16V320H286.72V227.84H384V161.27999999999997z" />
    <glyph glyph-name="plus"
      unicode="&#xF140;"
      horiz-adv-x="512" d=" M460.8 227.84L291.84000000000003 227.84L291.84000000000003 396.8L220.16 396.8L220.16 227.84L51.2 227.84L51.2 156.15999999999997L220.16 156.15999999999997L220.16 -12.800000000000011L291.84000000000003 -12.800000000000011L291.84000000000003 156.15999999999997L460.8 156.15999999999997z" />
    <glyph glyph-name="position"
      unicode="&#xF141;"
      horiz-adv-x="512" d=" M256 391.68C184.35072 391.68 126.2592 333.59360000000004 126.2592 261.93919999999997S183.04 107.01311999999996 256 -17.920000000000016C328.96 107.01311999999996 385.74080000000004 190.28992 385.74080000000004 261.93919999999997S327.6544 391.68 256 391.68zM256 218.56256000000002C230.30272000000002 218.56256000000002 209.46944 239.39072 209.46944 265.088C209.46944 290.78528000000006 230.30272000000002 311.61344 256 311.61344S302.53056000000004 290.78528000000006 302.53056000000004 265.088C302.53056000000004 239.39072 281.69728 218.56256000000002 256 218.56256000000002z" />
    <glyph glyph-name="printer"
      unicode="&#xF142;"
      horiz-adv-x="512" d=" M409.6 151.04000000000002L409.6 69.12L102.4 69.12L102.4 151.04000000000002L51.2 151.04000000000002L51.2 69.12L51.2 -12.800000000000011L460.8 -12.800000000000011L460.8 69.12L460.8 151.04000000000002z M334.85824 396.8H133.12V110.07999999999998H378.88V343.21407999999997L334.85824 396.8zM332.8 161.27999999999997H184.32V345.6H281.6V294.4H332.8V161.27999999999997z" />
    <glyph glyph-name="program"
      unicode="&#xF143;"
      horiz-adv-x="512" d=" M230.4 248.32C230.4 231.35232 216.64768 217.6 199.68 217.6H81.92C64.95232 217.6 51.2 231.35232 51.2 248.32V366.08C51.2 383.04768 64.95232 396.8 81.92 396.8H199.68C216.64768 396.8 230.4 383.04768 230.4 366.08V248.32z M460.8 247.99743999999998C460.8 231.20896 447.19104 217.6 430.40256 217.6H311.99744C295.20896 217.6 281.6 231.20896 281.6 247.99743999999998V366.40256C281.6 383.19104 295.20896 396.8 311.99744 396.8H430.40256C447.19104 396.8 460.8 383.19104 460.8 366.40256V247.99743999999998z M230.4 17.920000000000016C230.4 0.9523200000000429 216.64768 -12.800000000000011 199.68 -12.800000000000011H81.92C64.95232 -12.800000000000011 51.2 0.9523200000000429 51.2 17.920000000000016V135.68C51.2 152.64767999999998 64.95232 166.39999999999998 81.92 166.39999999999998H199.68C216.64768 166.39999999999998 230.4 152.64767999999998 230.4 135.68V17.920000000000016z M460.8 17.920000000000016C460.8 0.9523200000000429 447.04767999999996 -12.800000000000011 430.08 -12.800000000000011H312.32C295.35232 -12.800000000000011 281.6 0.9523200000000429 281.6 17.920000000000016V135.68C281.6 152.64767999999998 295.35232 166.39999999999998 312.32 166.39999999999998H430.08C447.04767999999996 166.39999999999998 460.8 152.64767999999998 460.8 135.68V17.920000000000016z" />
    <glyph glyph-name="question"
      unicode="&#xF144;"
      horiz-adv-x="512" d=" M400.81408000000005 336.81408C320.83456 416.79359999999997 191.16544000000002 416.79359999999997 111.18592000000004 336.81408S31.20640000000004 127.16543999999999 111.18592000000004 47.18592000000001S320.83456000000007 -32.79359999999997 400.81408000000005 47.18592000000001S480.7936 256.83456 400.81408000000005 336.81408zM252.94848000000002 33.27999999999997H252.50304C229.4784 33.27999999999997 213.54496 50.82624000000004 213.54496 73.84575999999998C213.54496 97.31072 229.92896000000002 114.27328 252.94848 114.27328C276.85375999999997 114.27328 292.352 97.24416000000002 292.79231999999996 73.7792C292.79744 50.75455999999997 276.85376 33.27999999999997 252.94848000000002 33.27999999999997zM299.8784 196.20864C285.85984 180.67455999999999 281.6 165.89312 281.6 148.84351999999996V140.8H218.86975999999999L218.49088 151.26015999999998C217.73311999999999 170.58815999999996 218.67520000000002 195.72223999999997 235.7248 215.79775999999998C247.84896 230.5792 266.81344 236.66688 266.81344 249.54879999999997C266.81344 262.8096 264.35072 267.9296 245.39648000000003 268.30848C232.89856 268.30848 208.67584000000002 253.42976 198.82496 246.60992L164.28544 288.06143999999995C179.0464 300.30848 201.38496 332.79999999999995 254.28992 333.64991999999995C304.30208 334.45376 331.55583999999993 291.30751999999995 331.55583999999993 259.86048C331.56095999999997 231.06560000000002 313.89184 212.12671999999998 299.8784 196.20864z" />
    <glyph glyph-name="refresh"
      unicode="&#xF145;"
      horiz-adv-x="512" d=" M460.8 192C460.8 78.88896 369.11104 -12.800000000000011 256 -12.800000000000011S51.2 78.88896 51.2 192S142.88896 396.8 256 396.8V434.1504L361.70752 368.68096L256 303.20640000000003V345.6C171.16672 345.6 102.4 276.83328 102.4 192C102.4 107.17184000000003 171.16672 38.39999999999998 256 38.39999999999998C340.82815999999997 38.39999999999998 409.6 107.17184000000003 409.6 192C409.6 231.31135999999998 394.60352 270.61760000000004 364.61055999999996 300.61055999999996L400.81408 336.81408C440.8064 296.82687999999996 460.8 244.41344 460.8 192z" />
    <glyph glyph-name="remote"
      unicode="&#xF146;"
      horiz-adv-x="512" d=" M467.87584000000004 422.4H300.12928C275.87072 422.4 256 401.23904 256 375.37792V8.616960000000006C256 -17.239040000000045 275.87584 -38.400000000000034 300.12928 -38.400000000000034H467.87584000000004C492.14464000000004 -38.400000000000034 512 -17.239040000000045 512 8.622079999999983V375.37792C512 401.23392 492.12928 422.4 467.87584000000004 422.4zM384 -19.584000000000003C366.94016000000005 -19.584000000000003 353.11104 -9.072640000000035 353.11104 3.9270399999999768C353.11104 16.91647999999998 366.94016 27.438079999999957 384 27.438079999999957C401.06496 27.438079999999957 414.88383999999996 16.916479999999922 414.88383999999996 3.9270399999999768C414.88383999999996 -9.082879999999989 401.06496 -19.584000000000003 384 -19.584000000000003zM476.68735999999996 50.93375999999995H291.30752V361.27232H476.69248V50.93887999999998H476.68735999999996z M90.99264 85.62176C114.78016 66.54975999999999 100.97663999999999 52.59264000000002 100.97663999999999 52.59264000000002C94.07488 42.71103999999997 76.8256 45.030399999999986 66.66751999999998 53.17632000000003C-25.25184 122.64447999999999 -25.82528 263.41887999999994 66.08896 332.88704C74.91584 339.73248 91.96544 339.73248 97.91488 332.05248C97.91488 332.05248 110.85312 319.5904 90.99264 301.81888C20.29568 248.39168 20.29568 139.04384 90.99264 85.62176z M166.18496 125.49119999999999C185.5232 108.04735999999997 183.7824 96.58879999999999 177.31583999999998 88.80127999999996C171.74527999999998 82.08895999999993 152.97536 82.48831999999993 138.73152 95.08863999999994C80.04608 146.88256 80.0512 240.45056 138.73664000000002 292.2496C151.49056000000002 303.16544 164.46976000000004 300.24703999999997 172.01152000000002 293.58079999999995C172.01152000000002 293.58079999999995 185.83040000000003 281.50272 166.19008000000002 261.83168C125.60384 226.01728 125.60384 161.31072 166.18496 125.49119999999999z" />
    <glyph glyph-name="replay"
      unicode="&#xF147;"
      horiz-adv-x="512" d=" M400.81408000000005 47.18080000000003L364.61056 83.38432C394.60352 113.37728000000004 409.6 152.68352 409.6 191.99488000000002C409.6 276.82304 340.82815999999997 345.59488 256 345.59488C171.17184 345.59488 102.4 276.82304 102.4 191.99488000000002C102.4 107.16160000000002 171.17184 38.394879999999944 256 38.394879999999944V80.78847999999999L361.70752 15.313919999999996L256 -50.155520000000024V-12.805120000000045C142.88896 -12.805120000000045 51.2 78.88383999999996 51.2 191.99487999999997C51.2 305.10591999999997 142.88896 396.79488 256 396.79488C369.11104 396.79488 460.8 305.10079999999994 460.8 191.99487999999997C460.8 139.58655999999996 440.8064 87.168 400.81408000000005 47.18080000000003z" />
    <glyph glyph-name="right-circle"
      unicode="&#xF148;"
      horiz-adv-x="512" d=" M400.0256 337.60256C319.616 417.14688 189.952 416.44544 110.39744 336.03584S31.55968 125.95711999999997 111.96928 46.40767999999997C192.37376 -33.13664000000006 322.03776000000005 -32.4403200000001 401.5872 47.96927999999997C481.14176 128.38400000000001 480.43519999999995 258.05312000000004 400.0256 337.60256zM215.88992 37.85728L172.45183999999998 81.30048L283.9296 192.00512L173.25056 302.68416L216.69376 346.12735999999995L370.82112 192L215.88992 37.85728z" />
    <glyph glyph-name="rss"
      unicode="&#xF149;"
      horiz-adv-x="512" d=" M161.98656000000003 42.624000000000024C161.98656000000003 12.021759999999972 137.17504000000002 -12.800000000000011 106.55744000000001 -12.800000000000011C75.95008000000001 -12.800000000000011 51.13344000000001 12.021759999999972 51.13344000000001 42.624000000000024C51.13344000000001 73.23648000000003 75.95008000000001 98.048 106.55744000000001 98.048C137.17504000000002 98.048 161.98656000000003 73.2416 161.98656000000003 42.624000000000024zM51.13344 257.19295999999997V175.0784C154.2656 174.01855999999998 237.95712 90.33215999999999 239.01696 -12.800000000000011H321.13152C320.07168 135.84895999999998 199.78240000000002 256.13312 51.13344 257.19295999999997zM51.13344 314.6752C138.3168 314.30144 220.22656000000003 280.18688 281.91232 218.49599999999998C343.73120000000006 156.69248 377.86112 74.56767999999994 378.11199999999997 -12.800000000000011H460.23168C459.70944000000003 213.0176 276.8896 396.0064 51.13856 396.8L51.13344 314.6752L51.13344 314.6752z" />
    <glyph glyph-name="schedule-compact"
      unicode="&#xF14A;"
      horiz-adv-x="512" d=" M179.20000000000002 89.59999999999997H460.8V12.800000000000011H179.20000000000002z M179.20000000000002 371.2H460.8V294.4H179.20000000000002z M179.20000000000002 232.96H460.8V156.15999999999997H179.20000000000002z M51.2 89.59999999999997H128V12.800000000000011H51.2z M51.2 371.2H128V294.4H51.2z M51.2 232.96H128V156.15999999999997H51.2z" />
    <glyph glyph-name="schedule-detailed"
      unicode="&#xF14B;"
      horiz-adv-x="512" d=" M256 371.2H460.8V320H256z M256 268.79999999999995H460.8V217.6H256z M51.2 166.39999999999998H460.8V115.19999999999999H51.2z M51.2 64H460.8V12.800000000000011H51.2z M143.88224 371.20511999999997L201.29792 217.66655999999998H166.2464L154.63424 251.85791999999998H97.21856L85.17632 217.66655999999998H51.2L109.2608 371.20511999999997H143.88224zM145.8176 277.01248L126.464 333.35296H126.03392L106.0352 277.01248H145.8176z" />
    <glyph glyph-name="search"
      unicode="&#xF14C;"
      horiz-adv-x="512" d=" M446.29504000000003 7.316480000000013 M461.99807999999996 41.8048L336.43519999999995 167.36768C350.74047999999993 189.77792 359.04 213.18656 359.04 242.55488C359.04 327.38304000000005 290.26816 396.15488 205.44 396.15488S51.84 327.38304 51.84 242.55488S120.61184000000002 88.95487999999995 205.44 88.95487999999995C236.19072 88.95487999999995 264.74496 98.10943999999995 288.75775999999996 113.67424L411.3152 -8.883199999999988L461.99807999999996 41.8048zM112.42496 242.56C112.42496 293.92895999999996 154.07104 335.57504 205.44 335.57504S298.45504 293.92895999999996 298.45504 242.56S256.80896 149.54496 205.44 149.54496S112.42496 191.19104 112.42496 242.56z" />
    <glyph glyph-name="share"
      unicode="&#xF14D;"
      horiz-adv-x="512" d=" M378.88 273.91488000000004C358.48192000000006 273.91488000000004 339.86048000000005 266.40896 325.51424 254.06976000000003L214.17472 303.64160000000004C214.68672000000004 307.32800000000003 215.03488000000002 311.06048000000004 215.03488000000002 314.89024000000006C215.04 360.13056 178.3552 396.8 133.12 396.8S51.2 360.13056 51.2 314.89024S87.8848 232.97024000000002 133.12 232.97024000000002C152.00768 232.97024000000002 169.35424 239.43168 183.21408 250.17344L297.33888 199.36256C297.10848000000004 196.93055999999999 296.96 194.48832 296.96 192.00511999999998C296.96 186.84928000000002 297.4976 181.82144 298.40896000000004 176.93183999999997L189.50656000000004 128.43519999999995C174.80704000000003 142.40767999999997 154.98752000000002 151.02975999999995 133.11488000000003 151.02975999999995C87.87968000000002 151.02975999999995 51.19488000000003 114.36031999999989 51.19488000000003 69.11999999999995S87.87968000000002 -12.800000000000068 133.11488000000003 -12.800000000000068S215.03488000000004 23.87967999999995 215.03488000000004 69.11999999999995C215.03488000000004 70.26175999999992 214.91200000000003 71.35231999999996 214.86592000000005 72.46847999999989L332.22144000000003 124.71807999999987C345.46176 115.50719999999984 361.53344 110.08511999999985 378.87487999999996 110.08511999999985C424.11008000000004 110.08511999999985 460.79488 146.76479999999987 460.79488 192.00511999999986S424.11519999999996 273.91488000000004 378.88 273.91488000000004z" />
    <glyph glyph-name="sight-square"
      unicode="&#xF14E;"
      horiz-adv-x="512" d=" M196.83839999999998 87.42400000000004C196.83839999999998 55.513428982576556 223.41993492972605 29.644800000000032 256.20992 29.644800000000032C288.99990507027394 29.644800000000032 315.58144 55.513428982576556 315.58144 87.42400000000004C315.58144 119.33457101742346 288.99990507027394 145.20319999999998 256.20992 145.20319999999998C223.41993492972605 145.20319999999998 196.83839999999998 119.33457101742346 196.83839999999998 87.42400000000004z M0 448V-64H512V448H0zM386.11968 78.40767999999997C384.62976000000003 76.57983999999993 373.38624000000004 65.54623999999995 371.57887999999997 63.64671999999996C333.71648 23.726079999999968 246.87104 -41.01120000000003 146.59583999999998 55.76191999999992C139.1104 62.996479999999906 131.66592 71.48543999999993 123.83743999999999 80.42496C119.99743999999998 84.81279999999998 118.64576 88.49919999999997 123.55071999999998 94.53568000000001C126.86847999999999 98.66752000000002 133.39647999999997 106.40895999999998 138.77247999999997 112.0256C177.62815999999998 152.53503999999998 267.42271999999997 218.19392 371.95264 110.71488C373.51935999999995 109.10719999999998 386.04287999999997 97.12639999999999 387.56352 95.39583999999996C394.04032 88.05887999999999 392.16128 85.89823999999999 386.11968 78.40767999999997zM157.32224 214.0416C209.1264 274.70336 302.87872 274.70336 354.68288 214.0416C347.55584000000005 207.95904 340.43392 201.87648000000002 333.31199999999995 195.79391999999999C292.72064 243.31264 219.28447999999997 243.31264 178.69312 195.79391999999999C171.5712 201.87648000000002 164.44416 207.95904 157.32224 214.0416zM373.52448 236.87168C311.82848 309.10976000000005 200.17152 309.10976000000005 138.47551999999996 236.87168C131.35359999999997 242.95424000000003 124.22655999999996 249.04192000000003 117.09951999999996 255.11936C190.02367999999996 340.49536 321.97632 340.49536 394.90047999999996 255.11936C387.77344 249.04191999999998 380.6464 242.94912 373.52448 236.87168zM413.89568 277.91872C331.00800000000004 374.97856 180.99712 374.97856 98.10432000000002 277.91872C90.98240000000001 284.0064 83.85024000000001 290.08896 76.72832000000001 296.17664C170.84416000000002 406.36415999999997 341.15584 406.36415999999997 435.26656 296.17664C428.14976 290.08896000000004 421.01248 284.01152 413.89568 277.91872z" />
    <glyph glyph-name="sight"
      unicode="&#xF14F;"
      horiz-adv-x="512" d=" M340.75136 196.15743999999998C348.55424 202.82879999999997 356.36735999999996 209.49503999999996 364.17536 216.16127999999998C307.38432 282.65984 204.61568 282.65984 147.82464000000002 216.16127999999998C155.63264 209.49503999999996 163.44576 202.82879999999997 171.24864000000002 196.15743999999998C215.74656 248.24831999999998 296.25344 248.24831999999998 340.75136 196.15743999999998z M383.10911999999996 102.89663999999999C268.5184 220.71808000000001 170.0864 148.74112000000002 127.488 104.33535999999998C121.59487999999999 98.18112000000002 114.44223999999998 89.69216 110.80192 85.16095999999999C105.4208 78.54591999999997 106.90047999999999 74.50112000000001 111.11424 69.69343999999995C119.70047999999998 59.89375999999993 127.86176 50.590719999999976 136.064 42.65471999999994C245.99040000000002 -63.431680000000085 341.1968 7.536639999999977 382.69952 51.297279999999944C384.68095999999997 53.38111999999995 397.00991999999997 65.46943999999996 398.63808 67.47647999999992C405.26336 75.68895999999995 407.3216 78.05439999999993 400.22015999999996 86.10303999999996C398.55616000000003 88.00256000000002 384.82432 101.13023999999996 383.10911999999996 102.89663999999999zM256.23040000000003 14.023680000000013C220.28288 14.023680000000013 191.14496 42.378240000000005 191.14496 77.35808000000003C191.14496 112.34816000000006 220.28288 140.69760000000002 256.23040000000003 140.69760000000002C292.1728 140.69760000000002 321.31072 112.34816000000006 321.31072 77.35808000000003C321.31072 42.37311999999997 292.16768 14.023680000000013 256.23040000000003 14.023680000000013z M103.73631999999999 261.1968C111.54431999999998 254.53056 119.36256 247.85407999999998 127.16544 241.18784C194.80064 320.37888 317.19936 320.37888 384.83456 241.18784C392.63743999999997 247.85407999999998 400.45568000000003 254.53056 408.26367999999997 261.1968C328.32512 354.78528 183.67488 354.78528 103.73631999999999 261.1968z M59.479040000000005 306.20672C67.28192000000001 299.53024000000005 75.10528000000001 292.86912 82.90816000000001 286.18752C173.7728 392.58624 338.22208 392.58624 429.08672 286.18752C436.8896 292.86400000000003 444.71296 299.53024000000005 452.51583999999997 306.20672C349.34784 426.99775999999997 162.65216 426.99775999999997 59.479040000000005 306.20672z" />
    </font>
</defs>
</svg>
